<svg width="305" height="63" viewBox="0 0 305 63" fill="none" xmlns="http://www.w3.org/2000/svg">
<path d="M62.4785 31.2409C62.4785 48.4945 48.4946 62.4814 31.2392 62.4814C13.9884 62.4814 0 48.4945 0 31.2409C0 13.9869 13.9884 -6.86646e-05 31.2392 -6.86646e-05C48.4946 -6.86646e-05 62.4785 13.9869 62.4785 31.2409Z" fill="#F3F3F3"/>
<path d="M31.2608 26.1643C28.4564 26.1643 26.1816 28.4374 26.1816 31.2411C26.1816 34.0447 28.4564 36.3174 31.2608 36.3174C34.0652 36.3174 36.34 34.0447 36.34 31.2411C36.34 28.4374 34.0652 26.1643 31.2608 26.1643Z" fill="#3EB1A7"/>
<path d="M29.739 10.7443C25.8985 10.7443 22.6291 13.5554 22.0627 17.3548L16.5 54.4814H18.2867C22.1317 54.4814 25.3966 51.6686 25.963 47.8683L27.2984 38.9603C27.3398 38.6566 27.4734 37.7833 27.653 36.5727C25.9123 35.4136 24.7657 33.4363 24.7657 31.1945C24.7657 28.2703 26.7182 25.797 29.3936 25.0037C29.808 22.2286 30.1212 20.1529 30.1212 20.1529C30.3606 18.5608 31.7283 17.3828 33.34 17.3828H40.3808C44.2259 17.3828 47.4907 14.57 48.0571 10.7692L48.0617 10.7443H29.739Z" fill="#0C0C0D"/>
<path d="M176.833 26.5012H180.763C180.763 29.5598 182.222 31.6709 186.805 31.6709C191.687 31.6709 192.925 29.8506 192.925 27.8849C192.925 26.5739 192.377 25.8096 191.25 25.4093C190.049 24.9358 187.463 24.6082 185.387 24.3169C182.986 23.9893 180.436 23.4431 179.125 22.6061C177.671 21.6959 176.76 20.0573 176.76 17.7999C176.76 13.4317 180.51 10.3732 186.772 10.3732C193.868 10.3732 196.454 13.5044 196.454 18.9654H192.524C192.524 15.4338 190.592 13.7594 186.842 13.7594C183.239 13.7594 181.09 15.2516 181.09 17.4359C181.09 18.7832 181.564 19.5843 182.512 20.021C183.565 20.5308 186.262 20.9675 188.337 21.2588C190.849 21.6596 193.178 22.0599 194.669 22.8605C196.307 23.698 197.255 25.3729 197.255 27.5936C197.255 31.4523 195 35.0566 186.842 35.0566C178.909 35.0566 176.833 30.8703 176.833 26.5012Z" fill="#3EB1A7"/>
<path d="M201.187 40.6261V37.4221C201.698 37.5675 202.535 37.9035 203.442 37.9035C205.338 37.9035 206.723 37.6683 207.555 34.6921H206.575L198.785 16.7079H203.479L209.198 30.578H209.267L214.329 16.7079H218.332L211.49 35.0561C209.488 40.4444 206.782 41.0996 204.173 41.0996C202.788 41.0996 201.698 40.8079 201.187 40.6261Z" fill="#3EB1A7"/>
<path d="M219.938 28.6859H223.614C223.614 30.7612 224.815 32.0358 228.312 32.0358C231.625 32.0358 233.079 31.0161 233.079 29.3775C233.079 28.6859 232.826 28.067 231.878 27.7394C231.004 27.4118 229.292 27.23 227.291 27.0478C224.488 26.7929 222.593 26.4289 221.502 25.6278C220.517 24.8999 219.938 23.5889 219.938 22.2057C219.938 18.6014 223.43 16.4171 228.312 16.4171C233.917 16.4171 236.392 18.7473 236.392 22.8246H232.716C232.679 20.4949 231.404 19.3662 228.418 19.3662C225.579 19.3662 223.978 20.3854 223.978 21.9145C223.978 22.6792 224.162 23.4072 225.215 23.7716C226.09 24.0624 227.801 24.2446 229.987 24.4627C232.532 24.7177 233.99 24.973 235.265 25.7005C236.466 26.3562 237.156 27.7394 237.156 29.1958C237.156 32.8364 234.101 34.9844 228.349 34.9844C222.155 34.9844 219.938 32.2175 219.938 28.6859Z" fill="#3EB1A7"/>
<path d="M241.855 28.286V20.0219H239.016V16.7093H241.307C242.002 16.7093 242.255 16.3449 242.365 15.3252L242.545 12.6315H245.932V16.7093H252.12V20.0219H245.932V28.0675C245.932 30.3976 246.806 31.5627 249.281 31.5627C250.303 31.5627 251.467 31.3805 251.973 31.2351V34.475C251.43 34.6572 250.192 34.9121 248.697 34.9121C243.783 34.9121 241.855 32.2543 241.855 28.286Z" fill="#3EB1A7"/>
<path d="M267.995 23.7716C267.995 21.077 266.32 19.5848 263.371 19.5848C260.569 19.5848 258.783 21.0407 258.314 24.0261H267.995V23.7716ZM271.672 26.5016H258.204C258.42 29.9605 260.352 31.8172 263.408 31.8172C266.031 31.8172 267.816 30.6521 267.995 28.5405H271.672C271.529 32.5452 268.249 34.9844 263.334 34.9844C257.656 34.9844 254.09 31.4891 254.09 25.8464C254.09 20.0214 257.656 16.4171 263.334 16.4171C268.433 16.4171 271.672 19.4389 271.672 25.0457V26.5016Z" fill="#3EB1A7"/>
<path d="M275.205 16.7081H279.282L279.135 21.4407H279.171C279.972 18.3462 282.158 16.4164 285.434 16.4164C288.931 16.4164 291.186 18.2367 291.623 21.149H291.66C292.313 18.2367 294.499 16.4164 297.922 16.4164C301.926 16.4164 304.222 19.0015 304.222 23.2242V34.6924H300.14V24.1348C300.14 21.5134 298.87 19.9112 296.427 19.9112C293.588 19.9112 291.77 22.0228 291.77 25.773V34.6924H287.693V24.0617C287.693 21.5134 286.345 19.9112 283.906 19.9112C281.136 19.9112 279.282 22.0596 279.282 25.9184V34.6924H275.205V16.7081Z" fill="#3EB1A7"/>
<path d="M77.4785 10.7369H92.5115V12.6303H79.5169V22.3141H90.7307V23.9526H79.5169V34.6924H77.4785V10.7369Z" fill="#F3F3F3"/>
<path d="M94.6586 16.7081H96.628V34.6924H94.6586V16.7081ZM94.5527 10.8827H96.697V14.2685H94.5527V10.8827Z" fill="#F3F3F3"/>
<path d="M101.211 28.3593V18.4566H98.082V16.7094H100.631C101.142 16.7094 101.358 16.4541 101.395 15.5807L101.469 12.6317H103.18V16.7094H110.023V18.4566H103.18V28.2498C103.18 31.2716 104.271 33.0556 107.147 33.0556C108.311 33.0556 109.475 32.8007 109.912 32.6548V34.3661C109.406 34.5483 108.274 34.8027 107 34.8027C102.96 34.8027 101.211 32.2545 101.211 28.3593Z" fill="#F3F3F3"/>
<path d="M112.32 16.7081H114.285L114.211 21.6956H114.248C115.233 18.4189 117.925 16.4164 122.223 16.4164C127.026 16.4164 129.829 19.0378 129.829 23.5518V34.6924H127.864V23.9163C127.864 20.2756 125.752 18.2004 121.638 18.2004C117.271 18.2004 114.285 20.8582 114.285 25.4817V34.6924H112.32V16.7081Z" fill="#F3F3F3"/>
<path d="M147.125 24.2446C147.125 20.2764 144.792 18.1284 141.079 18.1284C137.329 18.1284 134.821 20.3854 134.347 24.4264H147.125V24.2446ZM148.98 25.9191H134.273C134.31 30.5063 136.965 33.2736 141.079 33.2736C144.466 33.2736 146.868 31.5255 147.125 28.7228H148.98C148.8 32.5815 145.63 34.9844 141.079 34.9844C135.727 34.9844 132.309 31.4891 132.309 25.8464C132.309 20.0214 135.691 16.4171 141.01 16.4171C145.961 16.4171 148.98 19.4025 148.98 24.8272V25.9191Z" fill="#F3F3F3"/>
<path d="M165.446 33.2736C165.298 33.2736 165.165 33.2662 165.022 33.2621C166.154 32.3399 166.748 31.0764 166.748 29.5234C166.748 28.3077 166.32 27.202 165.487 26.497C168.05 26.7414 169.559 26.9912 170.323 27.3754C171.197 27.8489 171.524 28.6496 171.524 29.5966C171.524 31.8899 169.417 33.2736 165.446 33.2736ZM154.227 23.9534C153.316 23.5162 153.063 22.6065 153.063 21.7327C153.063 19.5848 155.318 18.1284 158.741 18.1284C159.04 18.1284 159.321 18.1422 159.593 18.1625C158.47 19.0956 157.839 20.3555 157.839 21.8418C157.839 23.0869 158.272 24.2281 159.155 24.9325C156.735 24.6574 155.092 24.4048 154.227 23.9534ZM171.782 26.174C170.654 25.5551 169.343 25.3002 166.246 24.973C163.628 24.6813 161.88 24.4264 160.968 23.9534C160.057 23.5162 159.804 22.6065 159.804 21.7327C159.804 20.4333 160.633 19.3901 162.045 18.7662C162.699 18.4763 163.476 18.277 164.36 18.1864C164.719 18.1496 165.091 18.1284 165.482 18.1284C169.159 18.1284 170.908 19.6575 170.908 22.8246H172.767C172.767 18.7105 170.507 16.4171 165.409 16.4171C164.171 16.4171 163.053 16.5814 162.077 16.8777C161.125 16.5759 159.993 16.4171 158.668 16.4171C154.08 16.4171 151.094 18.6014 151.094 21.8418C151.094 23.1523 151.568 24.3537 152.552 25.0457C153.606 25.7737 155.391 26.174 158.415 26.4653C161.18 26.7202 162.781 26.9747 163.582 27.3754C164.456 27.8489 164.783 28.6496 164.783 29.5966C164.783 31.0722 163.904 32.1678 162.225 32.7642C161.493 33.0237 160.61 33.188 159.579 33.2464C159.298 33.2625 159.008 33.2736 158.705 33.2736C154.591 33.2736 152.916 31.5623 152.916 28.6859H151.094C151.094 32.3629 153.095 34.9844 158.705 34.9844C160.021 34.9844 161.189 34.8505 162.197 34.5969C163.113 34.845 164.185 34.9844 165.446 34.9844C170.618 34.9844 173.494 32.9459 173.494 29.5234C173.494 28.1034 172.909 26.8293 171.782 26.174Z" fill="#F3F3F3"/>
<path d="M80.0691 49.9727C79.4847 49.9727 78.9832 49.865 78.5691 49.6487C78.1503 49.4334 77.7868 49.1237 77.4785 48.7206L78.0261 48.1804C78.2791 48.5333 78.5736 48.7961 78.9095 48.9686C79.2409 49.1416 79.6412 49.2281 80.1013 49.2281C80.5753 49.2281 80.9572 49.12 81.2517 48.9042C81.5416 48.6879 81.6888 48.3898 81.6888 48.0078C81.6888 47.7129 81.6198 47.4704 81.4864 47.279C81.3529 47.0889 81.1781 46.9339 80.9526 46.8151C80.7317 46.6964 80.4879 46.5901 80.2256 46.4967C79.9633 46.4029 79.6964 46.3039 79.4295 46.1995C79.1626 46.0955 78.9234 45.9662 78.7025 45.8111C78.4816 45.656 78.3068 45.455 78.1687 45.2065C78.0307 44.958 77.9617 44.6433 77.9617 44.2623C77.9617 43.8592 78.0583 43.5136 78.2561 43.2256C78.4494 42.938 78.7163 42.7167 79.0568 42.5616C79.4019 42.407 79.7884 42.3297 80.221 42.3297C80.6995 42.3297 81.132 42.4231 81.5094 42.6104C81.8867 42.7976 82.1996 43.0493 82.4527 43.3659L81.9051 43.9162C81.6704 43.636 81.422 43.4257 81.1459 43.2849C80.8744 43.1446 80.5569 43.0746 80.198 43.0746C79.7654 43.0746 79.4203 43.1754 79.1626 43.377C78.9003 43.5785 78.7715 43.8592 78.7715 44.219C78.7715 44.4923 78.8405 44.7155 78.974 44.8881C79.1074 45.0606 79.2823 45.2046 79.5077 45.3201C79.7286 45.4352 79.9725 45.5378 80.2348 45.628C80.497 45.7177 80.764 45.8166 81.0308 45.9243C81.2931 46.0324 81.537 46.1696 81.7579 46.3348C81.9787 46.5004 82.1536 46.7107 82.2916 46.9661C82.4297 47.2219 82.4987 47.5472 82.4987 47.943C82.4987 48.5839 82.2778 49.0823 81.8453 49.4384C81.4081 49.7946 80.8146 49.9727 80.0691 49.9727Z" fill="#F3F3F3"/>
<path d="M83.8145 49.8662V44.7922H84.5784V49.8662H83.8145ZM84.1918 43.7021C84.0492 43.7021 83.9249 43.6483 83.8237 43.5397C83.7225 43.432 83.6719 43.3064 83.6719 43.1619C83.6719 43.011 83.7225 42.8849 83.8237 42.7841C83.9249 42.6834 84.0492 42.6332 84.1918 42.6332C84.3483 42.6332 84.4772 42.6834 84.5738 42.7841C84.6704 42.8849 84.721 43.011 84.721 43.1619C84.721 43.3064 84.6704 43.432 84.5738 43.5397C84.4772 43.6483 84.3483 43.7021 84.1918 43.7021Z" fill="#F3F3F3"/>
<path d="M87.6658 49.9727C87.3943 49.9727 87.1321 49.9349 86.879 49.8595C86.6259 49.7835 86.4004 49.6777 86.1934 49.541C85.9909 49.4044 85.8068 49.2424 85.6504 49.0556L86.1473 48.5586C86.3452 48.8034 86.5753 48.9847 86.833 49.1034C87.0861 49.2222 87.3713 49.282 87.6888 49.282C88.0201 49.282 88.2824 49.2171 88.4711 49.0873C88.6643 48.958 88.7564 48.7786 88.7564 48.548C88.7564 48.3318 88.692 48.1643 88.5585 48.0456C88.4251 47.9269 88.2502 47.8302 88.0339 47.7543C87.8177 47.6788 87.5922 47.6071 87.3529 47.5385C87.1183 47.4704 86.8928 47.3839 86.6811 47.279C86.4695 47.1754 86.2946 47.031 86.1565 46.8474C86.0185 46.6638 85.9495 46.4176 85.9495 46.1079C85.9495 45.8203 86.0231 45.57 86.1658 45.3579C86.313 45.1457 86.5109 44.9801 86.7732 44.8614C87.0308 44.7427 87.3437 44.6828 87.7118 44.6828C88.0938 44.6828 88.4389 44.7519 88.7472 44.8881C89.0555 45.0247 89.3039 45.2263 89.4926 45.4927L88.9957 45.9892C88.853 45.7945 88.6644 45.6441 88.4389 45.5359C88.2134 45.4278 87.9603 45.374 87.6797 45.374C87.353 45.374 87.109 45.437 86.9388 45.5631C86.7685 45.6887 86.6857 45.8525 86.6857 46.0541C86.6857 46.2482 86.7548 46.4015 86.8882 46.5128C87.0262 46.6242 87.2011 46.7144 87.4127 46.7825C87.6244 46.8515 87.8499 46.9196 88.0892 46.9877C88.3238 47.0563 88.5539 47.1465 88.7702 47.2578C88.9864 47.3696 89.1567 47.5205 89.2902 47.711C89.4236 47.902 89.4926 48.1592 89.4926 48.4832C89.4926 48.9364 89.3269 49.2981 89.0002 49.5682C88.6735 49.8378 88.2272 49.9727 87.6658 49.9727Z" fill="#F3F3F3"/>
<path d="M91.4641 49.8662V42.6544H92.2325V49.8662H91.4641ZM90.1895 45.4829V44.7922H93.5071V45.4829H90.1895Z" fill="#F3F3F3"/>
<path d="M96.8759 49.9727C96.3697 49.9727 95.9188 49.8576 95.5139 49.6271C95.1089 49.397 94.7914 49.0804 94.5568 48.6773C94.3221 48.2743 94.207 47.821 94.207 47.3172C94.207 46.8207 94.3221 46.3725 94.5476 45.9731C94.773 45.5737 95.0859 45.2589 95.4816 45.0289C95.8774 44.7983 96.3191 44.6828 96.8068 44.6828C97.2762 44.6828 97.6903 44.7878 98.0447 44.9962C98.4036 45.2046 98.6842 45.4945 98.8867 45.8654C99.0938 46.2363 99.195 46.6624 99.195 47.1446C99.195 47.2021 99.1904 47.2684 99.1858 47.3439C99.1766 47.4198 99.1628 47.5081 99.1398 47.6089H94.7454V46.961H98.7211L98.4496 47.1984C98.4588 46.8313 98.3944 46.5128 98.2609 46.2432C98.1275 45.9731 97.9388 45.7628 97.6903 45.6114C97.4419 45.4605 97.1427 45.3846 96.7976 45.3846C96.4295 45.3846 96.112 45.4655 95.836 45.628C95.5645 45.7895 95.3482 46.0127 95.1963 46.297C95.0399 46.5814 94.9617 46.9141 94.9617 47.2955C94.9617 47.6839 95.0445 48.0258 95.2056 48.3212C95.3666 48.6161 95.5967 48.8462 95.8866 49.0119C96.1765 49.1775 96.5124 49.2604 96.8943 49.2604C97.198 49.2604 97.4787 49.2047 97.7363 49.0929C97.9986 48.9815 98.2149 48.8145 98.3943 48.5908L98.8913 49.0873C98.6566 49.3754 98.3622 49.5949 98.0079 49.7463C97.6535 49.8972 97.2762 49.9727 96.8759 49.9727Z" fill="#F3F3F3"/>
<path d="M107.327 49.8662V46.757C107.327 46.3397 107.198 46.0084 106.945 45.764C106.696 45.5188 106.379 45.3968 105.997 45.3968C105.744 45.3968 105.514 45.4525 105.302 45.5643C105.091 45.6757 104.92 45.8321 104.791 46.0337C104.667 46.2352 104.603 46.4727 104.603 46.746L104.152 46.6061C104.175 46.2173 104.276 45.8786 104.46 45.591C104.644 45.3034 104.883 45.0803 105.183 44.9215C105.482 44.7637 105.808 44.6841 106.172 44.6841C106.531 44.6841 106.857 44.7637 107.147 44.9215C107.437 45.0803 107.667 45.3034 107.838 45.591C108.008 45.8786 108.091 46.2209 108.091 46.6167V49.8662H107.327ZM103.839 49.8662V46.757C103.839 46.3397 103.71 46.0084 103.462 45.764C103.209 45.5188 102.891 45.3968 102.509 45.3968C102.251 45.3968 102.017 45.4525 101.805 45.5643C101.589 45.6757 101.423 45.8321 101.294 46.0337C101.17 46.2352 101.106 46.4727 101.106 46.746L100.761 46.6061C100.761 46.2173 100.848 45.8786 101.018 45.591C101.193 45.3034 101.423 45.0803 101.718 44.9215C102.008 44.7637 102.339 44.6841 102.702 44.6841C103.066 44.6841 103.388 44.7637 103.669 44.9215C103.954 45.0803 104.179 45.3034 104.35 45.591C104.52 45.8786 104.603 46.2209 104.603 46.6167V49.8662H103.839ZM100.342 49.8662V44.7922H101.106V49.8662H100.342Z" fill="#F3F3F3"/>
<path d="M113.535 49.865V48.5043L113.682 47.2523L113.535 46.0324V44.791H114.298V49.865H113.535ZM111.827 49.2493C112.361 49.2493 112.785 49.0735 113.102 48.7206C113.42 48.3681 113.576 47.9039 113.576 47.3278C113.576 46.9463 113.502 46.6118 113.36 46.3237C113.217 46.0361 113.01 45.8111 112.743 45.6491C112.476 45.4872 112.168 45.4067 111.818 45.4067C111.464 45.4067 111.146 45.4895 110.87 45.6547C110.594 45.8203 110.373 46.0467 110.212 46.3348C110.051 46.6228 109.968 46.9541 109.968 47.3278C109.968 47.7018 110.051 48.0331 110.212 48.3212C110.373 48.6092 110.594 48.8356 110.875 49.0008C111.156 49.1665 111.473 49.2493 111.827 49.2493ZM111.708 49.9727C111.234 49.9727 110.806 49.8562 110.424 49.622C110.042 49.3878 109.738 49.0735 109.518 48.6773C109.292 48.2816 109.182 47.8353 109.182 47.3388C109.182 46.8354 109.292 46.3835 109.518 45.9841C109.738 45.5843 110.042 45.2681 110.419 45.0339C110.797 44.7997 111.225 44.6828 111.699 44.6828C112.085 44.6828 112.435 44.7606 112.739 44.9152C113.047 45.0698 113.295 45.2861 113.489 45.5631C113.682 45.8401 113.797 46.1622 113.834 46.5294V48.1164C113.792 48.4832 113.673 48.8071 113.484 49.0873C113.295 49.3685 113.047 49.5861 112.743 49.7407C112.444 49.8954 112.099 49.9727 111.708 49.9727Z" fill="#F3F3F3"/>
<path d="M122.928 49.865H122.159V48.5043L122.321 47.2523L122.159 46.0324V42.2215H122.928V49.865ZM120.434 49.2493C120.784 49.2493 121.097 49.1665 121.363 49.0008C121.626 48.8356 121.833 48.6092 121.98 48.3212C122.127 48.0331 122.205 47.7018 122.205 47.3278C122.205 46.9463 122.127 46.6118 121.975 46.3237C121.824 46.0361 121.616 45.8111 121.35 45.6491C121.083 45.4872 120.774 45.4067 120.42 45.4067C120.07 45.4067 119.757 45.4895 119.486 45.6547C119.219 45.8203 119.003 46.0467 118.846 46.3348C118.685 46.6228 118.607 46.9541 118.607 47.3278C118.607 47.7018 118.685 48.035 118.842 48.3267C118.994 48.618 119.21 48.8444 119.486 49.0068C119.767 49.1683 120.08 49.2493 120.434 49.2493ZM120.305 49.9727C119.827 49.9727 119.403 49.8576 119.03 49.6271C118.653 49.397 118.359 49.0823 118.142 48.6829C117.926 48.283 117.82 47.8353 117.82 47.3388C117.82 46.8354 117.926 46.3835 118.142 45.9841C118.359 45.5843 118.658 45.2681 119.035 45.0339C119.412 44.7997 119.836 44.6828 120.305 44.6828C120.678 44.6828 121.023 44.7588 121.336 44.9097C121.649 45.0606 121.906 45.275 122.104 45.5521C122.307 45.8295 122.431 46.1548 122.472 46.5294V48.1164C122.431 48.4832 122.311 48.8053 122.113 49.0823C121.916 49.3593 121.658 49.5769 121.345 49.7352C121.032 49.8935 120.682 49.9727 120.305 49.9727Z" fill="#F3F3F3"/>
<path d="M126.777 49.9727C126.276 49.9727 125.82 49.8576 125.42 49.6271C125.015 49.397 124.698 49.0804 124.463 48.6773C124.228 48.2743 124.113 47.821 124.113 47.3172C124.113 46.8207 124.224 46.3725 124.454 45.9731C124.679 45.5737 124.992 45.2589 125.388 45.0289C125.784 44.7983 126.225 44.6828 126.713 44.6828C127.182 44.6828 127.592 44.7878 127.951 44.9962C128.305 45.2046 128.586 45.4945 128.793 45.8654C128.995 46.2363 129.101 46.6624 129.101 47.1446C129.101 47.2021 129.097 47.2684 129.087 47.3439C129.083 47.4198 129.069 47.5081 129.046 47.6089H124.652V46.961H128.623L128.356 47.1984C128.36 46.8313 128.301 46.5128 128.167 46.2432C128.034 45.9731 127.84 45.7628 127.592 45.6114C127.343 45.4605 127.049 45.3846 126.704 45.3846C126.336 45.3846 126.014 45.4655 125.742 45.628C125.471 45.7895 125.254 46.0127 125.098 46.297C124.946 46.5814 124.868 46.9141 124.868 47.2955C124.868 47.6839 124.951 48.0258 125.112 48.3212C125.273 48.6161 125.498 48.8462 125.793 49.0119C126.083 49.1775 126.419 49.2604 126.801 49.2604C127.104 49.2604 127.385 49.2047 127.643 49.0929C127.9 48.9815 128.121 48.8145 128.301 48.5908L128.798 49.0873C128.558 49.3754 128.264 49.5949 127.914 49.7463C127.56 49.8972 127.182 49.9727 126.777 49.9727Z" fill="#F3F3F3"/>
<path d="M133.298 47.9336V47.2425H137.186V47.9336H133.298ZM131.908 49.8662L134.941 42.439H135.543L138.557 49.8662H137.692L135.079 43.3133H135.392L132.75 49.8662H131.908Z" fill="#F3F3F3"/>
<path d="M141.493 49.8662L139.137 44.7922H139.993L141.967 49.2294H141.483L143.48 44.7922H144.3L141.934 49.8662H141.493Z" fill="#F3F3F3"/>
<path d="M149.264 49.865V48.5043L149.416 47.2523L149.264 46.0324V44.791H150.033V49.865H149.264ZM147.557 49.2493C148.091 49.2493 148.514 49.0735 148.832 48.7206C149.149 48.3681 149.31 47.9039 149.31 47.3278C149.31 46.9463 149.237 46.6118 149.094 46.3237C148.947 46.0361 148.744 45.8111 148.478 45.6491C148.211 45.4872 147.902 45.4067 147.548 45.4067C147.194 45.4067 146.881 45.4895 146.605 45.6547C146.329 45.8203 146.108 46.0467 145.947 46.3348C145.781 46.6228 145.703 46.9541 145.703 47.3278C145.703 47.7018 145.781 48.0331 145.947 48.3212C146.108 48.6092 146.329 48.8356 146.609 49.0008C146.89 49.1665 147.208 49.2493 147.557 49.2493ZM147.442 49.9727C146.964 49.9727 146.536 49.8562 146.154 49.622C145.777 49.3878 145.473 49.0735 145.247 48.6773C145.026 48.2816 144.916 47.8353 144.916 47.3388C144.916 46.8354 145.026 46.3835 145.247 45.9841C145.473 45.5843 145.772 45.2681 146.149 45.0339C146.527 44.7997 146.954 44.6828 147.428 44.6828C147.82 44.6828 148.165 44.7606 148.473 44.9152C148.777 45.0698 149.03 45.2861 149.223 45.5631C149.416 45.8401 149.531 46.1622 149.568 46.5294V48.1164C149.522 48.4832 149.407 48.8071 149.218 49.0873C149.025 49.3685 148.781 49.5861 148.478 49.7407C148.174 49.8954 147.829 49.9727 147.442 49.9727Z" fill="#F3F3F3"/>
<path d="M151.541 49.8662V42.2228H152.309V49.8662H151.541Z" fill="#F3F3F3"/>
<path d="M153.842 49.8662V44.7922H154.606V49.8662H153.842ZM154.219 43.7021C154.077 43.7021 153.952 43.6483 153.851 43.5397C153.75 43.432 153.699 43.3064 153.699 43.1619C153.699 43.011 153.75 42.8849 153.851 42.7841C153.952 42.6834 154.077 42.6332 154.219 42.6332C154.376 42.6332 154.504 42.6834 154.601 42.7841C154.698 42.8849 154.748 43.011 154.748 43.1619C154.748 43.3064 154.698 43.432 154.601 43.5397C154.504 43.6483 154.376 43.7021 154.219 43.7021Z" fill="#F3F3F3"/>
<path d="M160.157 49.865V48.5043L160.309 47.2523L160.157 46.0324V44.791H160.925V49.865H160.157ZM158.454 49.2493C158.984 49.2493 159.412 49.0735 159.724 48.7206C160.042 48.3681 160.203 47.9039 160.203 47.3278C160.203 46.9463 160.129 46.6118 159.987 46.3237C159.839 46.0361 159.637 45.8111 159.37 45.6491C159.103 45.4872 158.795 45.4067 158.441 45.4067C158.091 45.4067 157.773 45.4895 157.497 45.6547C157.221 45.8203 157 46.0467 156.839 46.3348C156.678 46.6228 156.595 46.9541 156.595 47.3278C156.595 47.7018 156.678 48.0331 156.839 48.3212C157 48.6092 157.221 48.8356 157.502 49.0008C157.783 49.1665 158.1 49.2493 158.454 49.2493ZM158.335 49.9727C157.861 49.9727 157.433 49.8562 157.051 49.622C156.669 49.3878 156.365 49.0735 156.144 48.6773C155.919 48.2816 155.809 47.8353 155.809 47.3388C155.809 46.8354 155.919 46.3835 156.144 45.9841C156.365 45.5843 156.664 45.2681 157.042 45.0339C157.424 44.7997 157.847 44.6828 158.321 44.6828C158.712 44.6828 159.057 44.7606 159.366 44.9152C159.669 45.0698 159.922 45.2861 160.116 45.5631C160.309 45.8401 160.424 46.1622 160.461 46.5294V48.1164C160.419 48.4832 160.3 48.8071 160.111 49.0873C159.918 49.3685 159.674 49.5861 159.37 49.7407C159.066 49.8954 158.721 49.9727 158.335 49.9727Z" fill="#F3F3F3"/>
<path d="M164.4 52.1084C164.166 52.1084 163.945 52.0739 163.738 52.0058C163.531 51.9372 163.342 51.8383 163.162 51.7085L163.549 51.2769C163.65 51.3634 163.765 51.4334 163.899 51.4872C164.032 51.5415 164.184 51.5687 164.359 51.5687C164.598 51.5687 164.773 51.5309 164.893 51.455C165.012 51.3795 165.072 51.2806 165.072 51.1582C165.072 51.0284 165.008 50.924 164.888 50.8453C164.764 50.7662 164.584 50.7266 164.35 50.7266H163.949L164.262 49.7442H164.888L164.639 50.4997L164.35 50.2517C164.778 50.2439 165.123 50.3253 165.371 50.4942C165.624 50.6635 165.753 50.8881 165.753 51.1692C165.753 51.4495 165.629 51.6763 165.39 51.8489C165.15 52.0219 164.819 52.1084 164.4 52.1084ZM164.745 49.9706C164.248 49.9706 163.802 49.8542 163.402 49.6199C163.001 49.3857 162.688 49.0678 162.458 48.6647C162.228 48.2616 162.113 47.8116 162.113 47.3151C162.113 46.8186 162.228 46.3704 162.458 45.971C162.688 45.5716 163.001 45.2569 163.402 45.0268C163.802 44.7962 164.248 44.6807 164.745 44.6807C165.136 44.6807 165.495 44.753 165.827 44.897C166.158 45.0411 166.439 45.2421 166.669 45.5012L166.163 46.0198C165.988 45.8251 165.781 45.676 165.541 45.5716C165.297 45.4676 165.035 45.4147 164.745 45.4147C164.396 45.4147 164.078 45.4975 163.797 45.6632C163.517 45.8288 163.296 46.0538 163.139 46.3377C162.978 46.6221 162.9 46.9479 162.9 47.3151C162.9 47.6818 162.978 48.0113 163.139 48.303C163.296 48.5943 163.517 48.823 163.797 48.9886C164.078 49.1543 164.396 49.2366 164.745 49.2366C165.035 49.2366 165.302 49.1842 165.546 49.0802C165.79 48.9757 166.002 48.8262 166.181 48.632L166.692 49.1395C166.452 49.4055 166.167 49.6107 165.831 49.7548C165.495 49.8988 165.136 49.9706 164.745 49.9706Z" fill="#F3F3F3"/>
<path d="M171.76 49.865V48.5043L171.912 47.2523L171.76 46.0324V44.791H172.529V49.865H171.76ZM170.974 43.9489C170.744 43.9489 170.55 43.9075 170.389 43.8247C170.233 43.7418 170.081 43.6613 169.934 43.5822C169.786 43.5026 169.621 43.4635 169.441 43.4635C169.248 43.4635 169.096 43.4994 168.986 43.5711C168.88 43.6429 168.779 43.7437 168.687 43.8735L168.263 43.4635C168.424 43.2688 168.59 43.1105 168.765 42.9881C168.944 42.8657 169.165 42.8045 169.432 42.8045C169.667 42.8045 169.869 42.8446 170.03 42.9232C170.191 43.0024 170.343 43.0838 170.486 43.1662C170.633 43.249 170.79 43.2904 170.964 43.2904C171.135 43.2904 171.277 43.2564 171.383 43.1878C171.494 43.1197 171.59 43.0208 171.678 42.891L172.096 43.2904C171.945 43.492 171.784 43.6521 171.604 43.7708C171.429 43.8896 171.217 43.9489 170.974 43.9489ZM170.058 49.2493C170.587 49.2493 171.015 49.0735 171.333 48.7206C171.645 48.3681 171.806 47.9039 171.806 47.3278C171.806 46.9463 171.733 46.6118 171.59 46.3237C171.448 46.0361 171.24 45.8111 170.974 45.6491C170.707 45.4872 170.398 45.4067 170.044 45.4067C169.694 45.4067 169.377 45.4895 169.101 45.6547C168.825 45.8203 168.604 46.0467 168.443 46.3348C168.282 46.6228 168.199 46.9541 168.199 47.3278C168.199 47.7018 168.282 48.0331 168.443 48.3212C168.604 48.6092 168.825 48.8356 169.105 49.0008C169.386 49.1665 169.704 49.2493 170.058 49.2493ZM169.938 49.9727C169.464 49.9727 169.036 49.8562 168.654 49.622C168.273 49.3878 167.969 49.0735 167.748 48.6773C167.523 48.2816 167.412 47.8353 167.412 47.3388C167.412 46.8354 167.523 46.3835 167.748 45.9841C167.969 45.5843 168.268 45.2681 168.645 45.0339C169.027 44.7997 169.451 44.6828 169.925 44.6828C170.316 44.6828 170.661 44.7606 170.969 44.9152C171.273 45.0698 171.526 45.2861 171.719 45.5631C171.912 45.8401 172.027 46.1622 172.064 46.5294V48.1164C172.023 48.4832 171.903 48.8071 171.714 49.0873C171.521 49.3685 171.277 49.5861 170.974 49.7407C170.67 49.8954 170.325 49.9727 169.938 49.9727Z" fill="#F3F3F3"/>
<path d="M176.349 49.2387C176.703 49.2387 177.021 49.1564 177.301 48.9907C177.582 48.8251 177.803 48.595 177.959 48.2996C178.116 48.0046 178.199 47.6738 178.199 47.3061C178.199 46.9463 178.116 46.6242 177.955 46.3398C177.794 46.0559 177.573 45.8309 177.297 45.6652C177.016 45.4996 176.703 45.4168 176.349 45.4168C175.999 45.4168 175.682 45.4996 175.401 45.6652C175.12 45.8309 174.899 46.0559 174.743 46.3398C174.582 46.6242 174.504 46.9463 174.504 47.3061C174.504 47.6807 174.582 48.0134 174.743 48.3051C174.899 48.5964 175.12 48.8251 175.401 48.9907C175.682 49.1564 175.999 49.2387 176.349 49.2387ZM176.349 49.9727C175.857 49.9727 175.41 49.8539 175.014 49.6165C174.614 49.3791 174.301 49.0588 174.067 48.6557C173.832 48.2531 173.717 47.8031 173.717 47.3061C173.717 46.817 173.832 46.3748 174.067 45.9786C174.301 45.5824 174.614 45.2681 175.014 45.0339C175.41 44.7997 175.857 44.6828 176.349 44.6828C176.841 44.6828 177.283 44.7983 177.683 45.0289C178.084 45.2589 178.401 45.5737 178.636 45.9731C178.866 46.3725 178.985 46.817 178.985 47.3061C178.985 47.8104 178.866 48.2618 178.636 48.6608C178.401 49.0607 178.084 49.3791 177.683 49.6165C177.283 49.8539 176.841 49.9727 176.349 49.9727Z" fill="#F3F3F3"/>
<path d="M184.834 49.9727C184.333 49.9727 183.877 49.8576 183.477 49.6271C183.072 49.397 182.754 49.0804 182.52 48.6773C182.285 48.2743 182.17 47.821 182.17 47.3172C182.17 46.8207 182.285 46.3725 182.51 45.9731C182.736 45.5737 183.049 45.2589 183.444 45.0289C183.84 44.7983 184.282 44.6828 184.77 44.6828C185.239 44.6828 185.653 44.7878 186.008 44.9962C186.362 45.2046 186.642 45.4945 186.85 45.8654C187.057 46.2363 187.158 46.6624 187.158 47.1446C187.158 47.2021 187.153 47.2684 187.149 47.3439C187.139 47.4198 187.126 47.5081 187.103 47.6089H182.708V46.961H186.684L186.412 47.1984C186.417 46.8313 186.357 46.5128 186.224 46.2432C186.09 45.9731 185.902 45.7628 185.653 45.6114C185.405 45.4605 185.106 45.3846 184.76 45.3846C184.392 45.3846 184.075 45.4655 183.799 45.628C183.527 45.7895 183.311 46.0127 183.159 46.297C183.003 46.5814 182.925 46.9141 182.925 47.2955C182.925 47.6839 183.007 48.0258 183.168 48.3212C183.329 48.6161 183.555 48.8462 183.849 49.0119C184.139 49.1775 184.475 49.2604 184.857 49.2604C185.161 49.2604 185.442 49.2047 185.699 49.0929C185.957 48.9815 186.178 48.8145 186.357 48.5908L186.854 49.0873C186.619 49.3754 186.32 49.5949 185.971 49.7463C185.616 49.8972 185.239 49.9727 184.834 49.9727Z" fill="#F3F3F3"/>
<path d="M191.322 46.8863V46.1846H193.503C193.816 46.1846 194.087 46.1239 194.331 46.0015C194.571 45.8786 194.759 45.7042 194.897 45.4778C195.035 45.2514 195.104 44.9795 195.104 44.6624C195.104 44.3463 195.035 44.0744 194.897 43.8475C194.759 43.6207 194.571 43.4463 194.331 43.3244C194.087 43.202 193.816 43.1408 193.503 43.1408H191.322V42.439H193.568C194.014 42.439 194.414 42.5306 194.768 42.7142C195.118 42.8978 195.399 43.1569 195.606 43.4914C195.808 43.8259 195.914 44.2166 195.914 44.6624C195.914 45.1161 195.808 45.5086 195.606 45.8395C195.399 46.1708 195.118 46.4276 194.768 46.6112C194.414 46.7948 194.014 46.8863 193.568 46.8863H191.322ZM190.807 49.8662V42.439H191.603V49.8662H190.807Z" fill="#F3F3F3"/>
<path d="M197.944 46.9084L197.631 46.7786C197.631 46.1308 197.788 45.62 198.101 45.2455C198.414 44.8718 198.841 44.6841 199.389 44.6841C199.642 44.6841 199.872 44.7292 200.079 44.8189C200.286 44.9095 200.484 45.0513 200.664 45.2455L200.158 45.7746C200.038 45.6453 199.909 45.5514 199.762 45.4939C199.615 45.4364 199.444 45.4079 199.26 45.4079C198.869 45.4079 198.556 45.5335 198.308 45.7857C198.064 46.0374 197.944 46.4119 197.944 46.9084ZM197.176 49.8662V44.7922H197.944V49.8662H197.176Z" fill="#F3F3F3"/>
<path d="M203.622 49.9727C203.116 49.9727 202.665 49.8576 202.26 49.6271C201.855 49.397 201.537 49.0804 201.303 48.6773C201.073 48.2743 200.953 47.821 200.953 47.3172C200.953 46.8207 201.068 46.3725 201.294 45.9731C201.519 45.5737 201.832 45.2589 202.228 45.0289C202.624 44.7983 203.065 44.6828 203.558 44.6828C204.022 44.6828 204.436 44.7878 204.791 44.9962C205.15 45.2046 205.43 45.4945 205.633 45.8654C205.84 46.2363 205.941 46.6624 205.941 47.1446C205.941 47.2021 205.937 47.2684 205.932 47.3439C205.923 47.4198 205.909 47.5081 205.886 47.6089H201.492V46.961H205.467L205.196 47.1984C205.205 46.8313 205.14 46.5128 205.007 46.2432C204.874 45.9731 204.685 45.7628 204.436 45.6114C204.188 45.4605 203.889 45.3846 203.544 45.3846C203.176 45.3846 202.858 45.4655 202.582 45.628C202.311 45.7895 202.094 46.0127 201.942 46.297C201.786 46.5814 201.708 46.9141 201.708 47.2955C201.708 47.6839 201.791 48.0258 201.952 48.3212C202.113 48.6161 202.343 48.8462 202.633 49.0119C202.923 49.1775 203.258 49.2604 203.64 49.2604C203.944 49.2604 204.225 49.2047 204.482 49.0929C204.745 48.9815 204.961 48.8145 205.14 48.5908L205.637 49.0873C205.403 49.3754 205.108 49.5949 204.754 49.7463C204.4 49.8972 204.022 49.9727 203.622 49.9727Z" fill="#F3F3F3"/>
<path d="M208.653 49.9727C208.377 49.9727 208.115 49.9349 207.866 49.8595C207.613 49.7835 207.383 49.6777 207.18 49.541C206.973 49.4044 206.794 49.2424 206.633 49.0556L207.13 48.5586C207.332 48.8034 207.558 48.9847 207.815 49.1034C208.073 49.2222 208.358 49.282 208.676 49.282C209.003 49.282 209.265 49.2171 209.458 49.0873C209.647 48.958 209.743 48.7786 209.743 48.548C209.743 48.3318 209.674 48.1643 209.541 48.0456C209.407 47.9269 209.233 47.8302 209.021 47.7543C208.805 47.6788 208.575 47.6071 208.34 47.5385C208.101 47.4704 207.875 47.3839 207.664 47.279C207.452 47.1754 207.277 47.031 207.139 46.8474C207.006 46.6638 206.936 46.4176 206.936 46.1079C206.936 45.8203 207.006 45.57 207.153 45.3579C207.295 45.1457 207.498 44.9801 207.756 44.8614C208.018 44.7427 208.331 44.6828 208.694 44.6828C209.076 44.6828 209.421 44.7519 209.73 44.8881C210.043 45.0247 210.291 45.2263 210.475 45.4927L209.978 45.9892C209.835 45.7945 209.651 45.6441 209.426 45.5359C209.196 45.4278 208.943 45.374 208.662 45.374C208.34 45.374 208.091 45.437 207.926 45.5631C207.756 45.6887 207.668 45.8525 207.668 46.0541C207.668 46.2482 207.737 46.4015 207.875 46.5128C208.013 46.6242 208.188 46.7144 208.4 46.7825C208.611 46.8515 208.837 46.9196 209.072 46.9877C209.311 47.0563 209.536 47.1465 209.753 47.2578C209.969 47.3696 210.144 47.5205 210.277 47.711C210.411 47.902 210.475 48.1592 210.475 48.4832C210.475 48.9364 210.314 49.2981 209.987 49.5682C209.656 49.8378 209.214 49.9727 208.653 49.9727Z" fill="#F3F3F3"/>
<path d="M213.974 49.9727C213.478 49.9727 213.027 49.8562 212.626 49.622C212.231 49.3878 211.913 49.0698 211.683 48.6668C211.453 48.2637 211.338 47.8137 211.338 47.3172C211.338 46.8207 211.453 46.3725 211.683 45.9731C211.913 45.5737 212.231 45.2589 212.626 45.0289C213.027 44.7983 213.478 44.6828 213.974 44.6828C214.361 44.6828 214.72 44.7551 215.051 44.8991C215.383 45.0431 215.663 45.2442 215.893 45.5033L215.387 46.0219C215.212 45.8272 215.005 45.6781 214.766 45.5737C214.527 45.4697 214.26 45.4168 213.974 45.4168C213.62 45.4168 213.303 45.4996 213.022 45.6652C212.741 45.8309 212.52 46.0559 212.364 46.3398C212.208 46.6242 212.125 46.95 212.125 47.3172C212.125 47.6839 212.208 48.0134 212.364 48.3051C212.52 48.5964 212.741 48.8251 213.022 48.9907C213.303 49.1564 213.62 49.2387 213.974 49.2387C214.26 49.2387 214.527 49.1863 214.771 49.0823C215.014 48.9778 215.226 48.8283 215.41 48.6341L215.916 49.1416C215.677 49.4076 215.392 49.6128 215.056 49.7568C214.725 49.9009 214.361 49.9727 213.974 49.9727Z" fill="#F3F3F3"/>
<path d="M217.731 46.9084L217.418 46.7786C217.418 46.1308 217.575 45.62 217.888 45.2455C218.201 44.8718 218.629 44.6841 219.176 44.6841C219.429 44.6841 219.659 44.7292 219.866 44.8189C220.078 44.9095 220.271 45.0513 220.451 45.2455L219.945 45.7746C219.83 45.6453 219.696 45.5514 219.549 45.4939C219.402 45.4364 219.236 45.4079 219.047 45.4079C218.661 45.4079 218.343 45.5335 218.099 45.7857C217.851 46.0374 217.731 46.4119 217.731 46.9084ZM216.963 49.8662V44.7922H217.731V49.8662H216.963Z" fill="#F3F3F3"/>
<path d="M221.248 49.8662V44.7922H222.012V49.8662H221.248ZM221.625 43.7021C221.483 43.7021 221.359 43.6483 221.257 43.5397C221.156 43.432 221.105 43.3064 221.105 43.1619C221.105 43.011 221.156 42.8849 221.257 42.7841C221.359 42.6834 221.483 42.6332 221.625 42.6332C221.782 42.6332 221.911 42.6834 222.007 42.7841C222.104 42.8849 222.155 43.011 222.155 43.1619C222.155 43.3064 222.104 43.432 222.007 43.5397C221.911 43.6483 221.782 43.7021 221.625 43.7021Z" fill="#F3F3F3"/>
<path d="M225.502 52.1084C225.262 52.1084 225.042 52.0739 224.839 52.0058C224.632 51.9372 224.439 51.8383 224.259 51.7085L224.65 51.2769C224.752 51.3634 224.867 51.4334 225 51.4872C225.134 51.5415 225.285 51.5687 225.46 51.5687C225.695 51.5687 225.874 51.5309 225.994 51.455C226.114 51.3795 226.174 51.2806 226.174 51.1582C226.174 51.0284 226.109 50.924 225.989 50.8453C225.865 50.7662 225.686 50.7266 225.447 50.7266H225.051L225.364 49.7442H225.989L225.741 50.4997L225.447 50.2517C225.879 50.2439 226.22 50.3253 226.473 50.4942C226.726 50.6635 226.85 50.8881 226.85 51.1692C226.85 51.4495 226.73 51.6763 226.491 51.8489C226.247 52.0219 225.92 52.1084 225.502 52.1084ZM225.847 49.9706C225.35 49.9706 224.904 49.8542 224.503 49.6199C224.103 49.3857 223.79 49.0678 223.56 48.6647C223.33 48.2616 223.215 47.8116 223.215 47.3151C223.215 46.8186 223.33 46.3704 223.56 45.971C223.79 45.5716 224.103 45.2569 224.503 45.0268C224.904 44.7962 225.35 44.6807 225.847 44.6807C226.238 44.6807 226.597 44.753 226.928 44.897C227.259 45.0411 227.54 45.2421 227.77 45.5012L227.264 46.0198C227.089 45.8251 226.882 45.676 226.643 45.5716C226.399 45.4676 226.137 45.4147 225.847 45.4147C225.493 45.4147 225.18 45.4975 224.899 45.6632C224.618 45.8288 224.397 46.0538 224.241 46.3377C224.08 46.6221 224.002 46.9479 224.002 47.3151C224.002 47.6818 224.08 48.0113 224.241 48.303C224.397 48.5943 224.618 48.823 224.899 48.9886C225.18 49.1543 225.493 49.2366 225.847 49.2366C226.137 49.2366 226.404 49.1842 226.648 49.0802C226.891 48.9757 227.103 48.8262 227.283 48.632L227.789 49.1395C227.554 49.4055 227.269 49.6107 226.933 49.7548C226.597 49.8988 226.238 49.9706 225.847 49.9706Z" fill="#F3F3F3"/>
<path d="M232.864 49.865V48.5043L233.016 47.2523L232.864 46.0324V44.791H233.632V49.865H232.864ZM232.077 43.9489C231.847 43.9489 231.654 43.9075 231.493 43.8247C231.336 43.7418 231.18 43.6613 231.033 43.5822C230.885 43.5026 230.724 43.4635 230.545 43.4635C230.352 43.4635 230.2 43.4994 230.089 43.5711C229.984 43.6429 229.882 43.7437 229.79 43.8735L229.367 43.4635C229.523 43.2688 229.694 43.1105 229.868 42.9881C230.043 42.8657 230.269 42.8045 230.531 42.8045C230.77 42.8045 230.968 42.8446 231.134 42.9232C231.295 43.0024 231.447 43.0838 231.589 43.1662C231.737 43.249 231.893 43.2904 232.063 43.2904C232.238 43.2904 232.381 43.2564 232.487 43.1878C232.593 43.1197 232.694 43.0208 232.777 42.891L233.2 43.2904C233.048 43.492 232.882 43.6521 232.708 43.7708C232.533 43.8896 232.321 43.9489 232.077 43.9489ZM231.157 49.2493C231.691 49.2493 232.114 49.0735 232.431 48.7206C232.749 48.3681 232.91 47.9039 232.91 47.3278C232.91 46.9463 232.836 46.6118 232.694 46.3237C232.547 46.0361 232.344 45.8111 232.077 45.6491C231.81 45.4872 231.502 45.4067 231.148 45.4067C230.793 45.4067 230.48 45.4895 230.204 45.6547C229.928 45.8203 229.707 46.0467 229.546 46.3348C229.385 46.6228 229.302 46.9541 229.302 47.3278C229.302 47.7018 229.385 48.0331 229.546 48.3212C229.707 48.6092 229.928 48.8356 230.209 49.0008C230.49 49.1665 230.807 49.2493 231.157 49.2493ZM231.042 49.9727C230.563 49.9727 230.135 49.8562 229.753 49.622C229.376 49.3878 229.072 49.0735 228.847 48.6773C228.626 48.2816 228.516 47.8353 228.516 47.3388C228.516 46.8354 228.626 46.3835 228.847 45.9841C229.072 45.5843 229.372 45.2681 229.749 45.0339C230.126 44.7997 230.554 44.6828 231.028 44.6828C231.419 44.6828 231.764 44.7606 232.073 44.9152C232.376 45.0698 232.625 45.2861 232.823 45.5631C233.016 45.8401 233.131 46.1622 233.168 46.5294V48.1164C233.122 48.4832 233.007 48.8071 232.818 49.0873C232.625 49.3685 232.381 49.5861 232.077 49.7407C231.773 49.8954 231.428 49.9727 231.042 49.9727Z" fill="#F3F3F3"/>
<path d="M237.452 49.2387C237.807 49.2387 238.124 49.1564 238.405 48.9907C238.686 48.8251 238.902 48.595 239.063 48.2996C239.219 48.0046 239.298 47.6738 239.298 47.3061C239.298 46.9463 239.219 46.6242 239.058 46.3398C238.893 46.0559 238.676 45.8309 238.396 45.6652C238.12 45.4996 237.807 45.4168 237.452 45.4168C237.103 45.4168 236.785 45.4996 236.504 45.6652C236.224 45.8309 236.003 46.0559 235.846 46.3398C235.685 46.6242 235.607 46.9463 235.607 47.3061C235.607 47.6807 235.685 48.0134 235.846 48.3051C236.003 48.5964 236.224 48.8251 236.504 48.9907C236.785 49.1564 237.103 49.2387 237.452 49.2387ZM237.452 49.9727C236.955 49.9727 236.509 49.8539 236.113 49.6165C235.718 49.3791 235.405 49.0588 235.17 48.6557C234.935 48.2531 234.82 47.8031 234.82 47.3061C234.82 46.817 234.935 46.3748 235.17 45.9786C235.405 45.5824 235.718 45.2681 236.113 45.0339C236.509 44.7997 236.955 44.6828 237.452 44.6828C237.945 44.6828 238.386 44.7983 238.787 45.0289C239.187 45.2589 239.505 45.5737 239.735 45.9731C239.969 46.3725 240.089 46.817 240.089 47.3061C240.089 47.8104 239.969 48.2618 239.735 48.6608C239.505 49.0607 239.187 49.3791 238.787 49.6165C238.386 49.8539 237.945 49.9727 237.452 49.9727Z" fill="#F3F3F3"/>
<path d="M248.391 49.865H247.622V48.5043L247.783 47.2523L247.622 46.0324V42.2215H248.391V49.865ZM245.897 49.2493C246.247 49.2493 246.559 49.1665 246.826 49.0008C247.093 48.8356 247.296 48.6092 247.448 48.3212C247.595 48.0331 247.668 47.7018 247.668 47.3278C247.668 46.9463 247.59 46.6118 247.438 46.3237C247.291 46.0361 247.079 45.8111 246.812 45.6491C246.546 45.4872 246.237 45.4067 245.888 45.4067C245.533 45.4067 245.22 45.4895 244.954 45.6547C244.682 45.8203 244.466 46.0467 244.309 46.3348C244.153 46.6228 244.07 46.9541 244.07 47.3278C244.07 47.7018 244.148 48.035 244.305 48.3267C244.457 48.618 244.673 48.8444 244.954 49.0068C245.23 49.1683 245.543 49.2493 245.897 49.2493ZM245.768 49.9727C245.294 49.9727 244.866 49.8576 244.493 49.6271C244.121 49.397 243.822 49.0823 243.61 48.6829C243.394 48.283 243.283 47.8353 243.283 47.3388C243.283 46.8354 243.394 46.3835 243.61 45.9841C243.822 45.5843 244.121 45.2681 244.498 45.0339C244.875 44.7997 245.299 44.6828 245.768 44.6828C246.141 44.6828 246.486 44.7588 246.799 44.9097C247.112 45.0606 247.369 45.275 247.572 45.5521C247.77 45.8295 247.894 46.1548 247.935 46.5294V48.1164C247.894 48.4832 247.774 48.8053 247.576 49.0823C247.379 49.3593 247.121 49.5769 246.808 49.7352C246.495 49.8935 246.15 49.9727 245.768 49.9727Z" fill="#F3F3F3"/>
<path d="M252.24 49.9727C251.739 49.9727 251.283 49.8576 250.883 49.6271C250.478 49.397 250.161 49.0804 249.926 48.6773C249.691 48.2743 249.576 47.821 249.576 47.3172C249.576 46.8207 249.691 46.3725 249.917 45.9731C250.142 45.5737 250.455 45.2589 250.851 45.0289C251.246 44.7983 251.688 44.6828 252.176 44.6828C252.645 44.6828 253.055 44.7878 253.414 44.9962C253.768 45.2046 254.049 45.4945 254.256 45.8654C254.463 46.2363 254.564 46.6624 254.564 47.1446C254.564 47.2021 254.56 47.2684 254.55 47.3439C254.546 47.4198 254.532 47.5081 254.509 47.6089H250.115V46.961H254.09L253.819 47.1984C253.823 46.8313 253.763 46.5128 253.63 46.2432C253.497 45.9731 253.303 45.7628 253.055 45.6114C252.811 45.4605 252.512 45.3846 252.167 45.3846C251.799 45.3846 251.481 45.4655 251.205 45.628C250.934 45.7895 250.717 46.0127 250.565 46.297C250.409 46.5814 250.331 46.9141 250.331 47.2955C250.331 47.6839 250.414 48.0258 250.575 48.3212C250.736 48.6161 250.961 48.8462 251.256 49.0119C251.546 49.1775 251.881 49.2604 252.263 49.2604C252.567 49.2604 252.848 49.2047 253.105 49.0929C253.363 48.9815 253.584 48.8145 253.763 48.5908L254.26 49.0873C254.021 49.3754 253.727 49.5949 253.377 49.7463C253.023 49.8972 252.645 49.9727 252.24 49.9727Z" fill="#F3F3F3"/>
<path d="M258.742 49.8662V49.1429H263.113V49.8662H258.742ZM258.742 46.4119V45.7097H262.768V46.4119H258.742ZM258.742 43.1619V42.439H263.049V43.1619H258.742ZM258.213 49.8662V42.439H259.009V49.8662H258.213Z" fill="#F3F3F3"/>
<path d="M266.676 47.4155L266.243 46.8647L267.789 44.7922H268.696L266.676 47.4155ZM267.853 49.8662L266.146 47.5664L265.994 47.4265L263.956 44.7922H264.895L266.468 46.8647L266.62 46.9945L268.783 49.8662H267.853ZM263.859 49.8662L265.994 47.081L266.427 47.6423L264.766 49.8662H263.859Z" fill="#F3F3F3"/>
<path d="M271.944 49.9727C271.438 49.9727 270.987 49.8576 270.582 49.6271C270.182 49.397 269.86 49.0804 269.63 48.6773C269.395 48.2743 269.275 47.821 269.275 47.3172C269.275 46.8207 269.39 46.3725 269.616 45.9731C269.846 45.5737 270.154 45.2589 270.55 45.0289C270.946 44.7983 271.387 44.6828 271.88 44.6828C272.349 44.6828 272.759 44.7878 273.113 44.9962C273.472 45.2046 273.753 45.4945 273.96 45.8654C274.162 46.2363 274.263 46.6624 274.263 47.1446C274.263 47.2021 274.263 47.2684 274.254 47.3439C274.245 47.4198 274.231 47.5081 274.213 47.6089H269.818V46.961H273.789L273.518 47.1984C273.527 46.8313 273.463 46.5128 273.329 46.2432C273.196 45.9731 273.007 45.7628 272.759 45.6114C272.51 45.4605 272.216 45.3846 271.871 45.3846C271.503 45.3846 271.18 45.4655 270.909 45.628C270.633 45.7895 270.421 46.0127 270.265 46.297C270.108 46.5814 270.035 46.9141 270.035 47.2955C270.035 47.6839 270.113 48.0258 270.274 48.3212C270.44 48.6161 270.665 48.8462 270.955 49.0119C271.249 49.1775 271.585 49.2604 271.967 49.2604C272.266 49.2604 272.547 49.2047 272.809 49.0929C273.067 48.9815 273.288 48.8145 273.467 48.5908L273.964 49.0873C273.725 49.3754 273.43 49.5949 273.076 49.7463C272.726 49.8972 272.349 49.9727 271.944 49.9727Z" fill="#F3F3F3"/>
<path d="M276.177 46.9084L275.864 46.7786C275.864 46.1308 276.02 45.62 276.333 45.2455C276.646 44.8718 277.074 44.6841 277.622 44.6841C277.875 44.6841 278.105 44.7292 278.312 44.8189C278.519 44.9095 278.717 45.0513 278.896 45.2455L278.39 45.7746C278.27 45.6453 278.142 45.5514 277.994 45.4939C277.847 45.4364 277.677 45.4079 277.493 45.4079C277.102 45.4079 276.789 45.5335 276.54 45.7857C276.296 46.0374 276.177 46.4119 276.177 46.9084ZM275.408 49.8662V44.7922H276.177V49.8662H275.408Z" fill="#F3F3F3"/>
<path d="M281.824 49.9727C281.327 49.9727 280.876 49.8562 280.48 49.622C280.08 49.3878 279.763 49.0698 279.533 48.6668C279.303 48.2637 279.188 47.8137 279.188 47.3172C279.188 46.8207 279.303 46.3725 279.533 45.9731C279.763 45.5737 280.08 45.2589 280.48 45.0289C280.876 44.7983 281.327 44.6828 281.824 44.6828C282.211 44.6828 282.57 44.7551 282.901 44.8991C283.232 45.0431 283.513 45.2442 283.743 45.5033L283.237 46.0219C283.062 45.8272 282.855 45.6781 282.616 45.5737C282.376 45.4697 282.109 45.4168 281.824 45.4168C281.47 45.4168 281.152 45.4996 280.872 45.6652C280.591 45.8309 280.37 46.0559 280.214 46.3398C280.057 46.6242 279.974 46.95 279.974 47.3172C279.974 47.6839 280.057 48.0134 280.214 48.3051C280.37 48.5964 280.591 48.8251 280.872 48.9907C281.152 49.1564 281.47 49.2387 281.824 49.2387C282.109 49.2387 282.376 49.1863 282.62 49.0823C282.864 48.9778 283.08 48.8283 283.26 48.6341L283.766 49.1416C283.527 49.4076 283.241 49.6128 282.905 49.7568C282.574 49.9009 282.211 49.9727 281.824 49.9727Z" fill="#F3F3F3"/>
<path d="M284.809 49.8662V44.7922H285.587V49.8662H284.809ZM284.519 44.004L284.174 43.6584L285.6 41.9531L286.212 42.5577L284.519 44.004Z" fill="#F3F3F3"/>
<path d="M289.412 49.9727C288.915 49.9727 288.469 49.8562 288.068 49.622C287.668 49.3878 287.355 49.0698 287.125 48.6668C286.89 48.2637 286.775 47.8137 286.775 47.3172C286.775 46.8207 286.89 46.3725 287.125 45.9731C287.355 45.5737 287.668 45.2589 288.068 45.0289C288.469 44.7983 288.915 44.6828 289.412 44.6828C289.799 44.6828 290.158 44.7551 290.489 44.8991C290.82 45.0431 291.101 45.2442 291.331 45.5033L290.825 46.0219C290.654 45.8272 290.447 45.6781 290.203 45.5737C289.964 45.4697 289.697 45.4168 289.412 45.4168C289.058 45.4168 288.74 45.4996 288.46 45.6652C288.179 45.8309 287.963 46.0559 287.802 46.3398C287.645 46.6242 287.567 46.95 287.567 47.3172C287.567 47.6839 287.645 48.0134 287.802 48.3051C287.963 48.5964 288.179 48.8251 288.46 48.9907C288.74 49.1564 289.058 49.2387 289.412 49.2387C289.697 49.2387 289.964 49.1863 290.208 49.0823C290.457 48.9778 290.668 48.8283 290.848 48.6341L291.354 49.1416C291.119 49.4076 290.829 49.6128 290.498 49.7568C290.162 49.9009 289.799 49.9727 289.412 49.9727Z" fill="#F3F3F3"/>
<path d="M292.411 49.8662V44.7922H293.18V49.8662H292.411ZM292.789 43.7021C292.646 43.7021 292.522 43.6483 292.425 43.5397C292.324 43.432 292.273 43.3064 292.273 43.1619C292.273 43.011 292.324 42.8849 292.425 42.7841C292.522 42.6834 292.646 42.6332 292.789 42.6332C292.95 42.6332 293.074 42.6834 293.175 42.7841C293.272 42.8849 293.318 43.011 293.318 43.1619C293.318 43.3064 293.272 43.432 293.175 43.5397C293.074 43.6483 292.95 43.7021 292.789 43.7021Z" fill="#F3F3F3"/>
<path d="M297.012 49.2387C297.361 49.2387 297.679 49.1564 297.96 48.9907C298.24 48.8251 298.461 48.595 298.617 48.2996C298.774 48.0046 298.857 47.6738 298.857 47.3061C298.857 46.9463 298.774 46.6242 298.613 46.3398C298.452 46.0559 298.231 45.8309 297.955 45.6652C297.679 45.4996 297.361 45.4168 297.012 45.4168C296.657 45.4168 296.34 45.4996 296.059 45.6652C295.778 45.8309 295.558 46.0559 295.401 46.3398C295.245 46.6242 295.162 46.9463 295.162 47.3061C295.162 47.6807 295.245 48.0134 295.401 48.3051C295.558 48.5964 295.778 48.8251 296.059 48.9907C296.34 49.1564 296.657 49.2387 297.012 49.2387ZM297.012 49.9727C296.515 49.9727 296.068 49.8539 295.673 49.6165C295.277 49.3791 294.959 49.0588 294.725 48.6557C294.49 48.2531 294.375 47.8031 294.375 47.3061C294.375 46.817 294.49 46.3748 294.725 45.9786C294.959 45.5824 295.277 45.2681 295.673 45.0339C296.068 44.7997 296.515 44.6828 297.012 44.6828C297.499 44.6828 297.941 44.7983 298.341 45.0289C298.742 45.2589 299.059 45.5737 299.294 45.9731C299.529 46.3725 299.644 46.817 299.644 47.3061C299.644 47.8104 299.529 48.2618 299.294 48.6608C299.059 49.0607 298.742 49.3791 298.341 49.6165C297.941 49.8539 297.499 49.9727 297.012 49.9727Z" fill="#F3F3F3"/>
<path d="M302.395 49.9727C302.123 49.9727 301.861 49.9349 301.608 49.8595C301.355 49.7835 301.13 49.6777 300.923 49.541C300.715 49.4044 300.536 49.2424 300.375 49.0556L300.872 48.5586C301.074 48.8034 301.304 48.9847 301.558 49.1034C301.815 49.2222 302.1 49.282 302.418 49.282C302.749 49.282 303.012 49.2171 303.2 49.0873C303.389 48.958 303.486 48.7786 303.486 48.548C303.486 48.3318 303.421 48.1643 303.288 48.0456C303.154 47.9269 302.979 47.8302 302.763 47.7543C302.547 47.6788 302.321 47.6071 302.082 47.5385C301.847 47.4704 301.622 47.3839 301.406 47.279C301.194 47.1754 301.019 47.031 300.886 46.8474C300.748 46.6638 300.679 46.4176 300.679 46.1079C300.679 45.8203 300.752 45.57 300.895 45.3579C301.038 45.1457 301.24 44.9801 301.498 44.8614C301.76 44.7427 302.073 44.6828 302.441 44.6828C302.818 44.6828 303.168 44.7519 303.476 44.8881C303.785 45.0247 304.033 45.2263 304.222 45.4927L303.725 45.9892C303.578 45.7945 303.394 45.6441 303.168 45.5359C302.943 45.4278 302.689 45.374 302.409 45.374C302.082 45.374 301.838 45.437 301.668 45.5631C301.498 45.6887 301.415 45.8525 301.415 46.0541C301.415 46.2482 301.479 46.4015 301.617 46.5128C301.755 46.6242 301.93 46.7144 302.142 46.7825C302.354 46.8515 302.579 46.9196 302.818 46.9877C303.053 47.0563 303.283 47.1465 303.499 47.2578C303.711 47.3696 303.886 47.5205 304.019 47.711C304.153 47.902 304.222 48.1592 304.222 48.4832C304.222 48.9364 304.056 49.2981 303.729 49.5682C303.403 49.8378 302.956 49.9727 302.395 49.9727Z" fill="#F3F3F3"/>
</svg>
