<svg width="63" height="63" viewBox="0 0 63 63" fill="none" xmlns="http://www.w3.org/2000/svg">
<path d="M62.4785 31.241C62.4785 48.4945 48.4946 62.4815 31.2392 62.4815C13.9884 62.4815 0 48.4945 0 31.241C0 13.987 13.9884 -3.63368e-06 31.2392 -3.63368e-06C48.4946 -3.63368e-06 62.4785 13.987 62.4785 31.241Z" fill="#0C0C0D"/>
<path d="M31.2608 26.1644C28.4564 26.1644 26.1816 28.4375 26.1816 31.2412C26.1816 34.0448 28.4564 36.3174 31.2608 36.3174C34.0652 36.3174 36.34 34.0448 36.34 31.2412C36.34 28.4375 34.0652 26.1644 31.2608 26.1644Z" fill="#3EB1A7"/>
<path d="M29.739 10.7444C25.8985 10.7444 22.6291 13.5554 22.0627 17.3548L16.5 54.4815H18.2867C22.1317 54.4815 25.3966 51.6687 25.963 47.8683L27.2984 38.9604C27.3398 38.6567 27.4734 37.7834 27.653 36.5727C25.9123 35.4136 24.7657 33.4364 24.7657 31.1946C24.7657 28.2704 26.7182 25.7971 29.3936 25.0038C29.808 22.2287 30.1212 20.153 30.1212 20.153C30.3606 18.5609 31.7283 17.3829 33.34 17.3829H40.3808C44.2259 17.3829 47.4907 14.57 48.0571 10.7693L48.0617 10.7444H29.739Z" fill="#F3F3F3"/>
</svg>
