<svg width="227" height="120" viewBox="0 0 227 120" fill="none" xmlns="http://www.w3.org/2000/svg">
<path d="M144.611 31.2409C144.611 48.4945 130.627 62.4814 113.372 62.4814C96.1212 62.4814 82.1328 48.4945 82.1328 31.2409C82.1328 13.9869 96.1212 -6.86646e-05 113.372 -6.86646e-05C130.627 -6.86646e-05 144.611 13.9869 144.611 31.2409Z" fill="#F3F3F3"/>
<path d="M113.394 26.1643C110.589 26.1643 108.314 28.4374 108.314 31.2411C108.314 34.0447 110.589 36.3174 113.394 36.3174C116.198 36.3174 118.473 34.0447 118.473 31.2411C118.473 28.4374 116.198 26.1643 113.394 26.1643Z" fill="#3EB1A7"/>
<path d="M111.872 10.7443C108.031 10.7443 104.762 13.5554 104.195 17.3548L98.6328 54.4814H100.419C104.265 54.4814 107.529 51.6686 108.096 47.8683L109.431 38.9603C109.473 38.6566 109.606 37.7833 109.786 36.5727C108.045 35.4136 106.899 33.4363 106.899 31.1945C106.899 28.2703 108.851 25.797 111.526 25.0037C111.941 22.2286 112.254 20.1529 112.254 20.1529C112.493 18.5608 113.861 17.3828 115.473 17.3828H122.514C126.359 17.3828 129.624 14.57 130.19 10.7692L130.195 10.7443H111.872Z" fill="#0C0C0D"/>
<path d="M99.3549 93.6096H103.285C103.285 96.6682 104.743 98.7793 109.326 98.7793C114.208 98.7793 115.446 96.959 115.446 94.9932C115.446 93.6823 114.898 92.918 113.771 92.5177C112.57 92.0442 109.984 91.7166 107.909 91.4253C105.507 91.0977 102.958 90.5515 101.646 89.7145C100.192 88.8043 99.2812 87.1657 99.2812 84.9083C99.2812 80.5401 103.031 77.4816 109.294 77.4816C116.389 77.4816 118.975 80.6128 118.975 86.0738H115.046C115.046 82.5422 113.113 80.8678 109.363 80.8678C105.76 80.8678 103.611 82.36 103.611 84.5443C103.611 85.8916 104.085 86.6927 105.033 87.1294C106.087 87.6392 108.783 88.0759 110.858 88.3672C113.371 88.768 115.699 89.1683 117.19 89.9689C118.828 90.8064 119.776 92.4813 119.776 94.702C119.776 98.5607 117.521 102.165 109.363 102.165C101.43 102.165 99.3549 97.9787 99.3549 93.6096Z" fill="#3EB1A7"/>
<path d="M123.709 107.735V104.531C124.219 104.676 125.057 105.012 125.963 105.012C127.859 105.012 129.244 104.777 130.077 101.801H129.097L121.307 83.8163H126L131.72 97.6864H131.789L136.85 83.8163H140.854L134.011 102.164C132.01 107.553 129.304 108.208 126.695 108.208C125.31 108.208 124.219 107.916 123.709 107.735Z" fill="#3EB1A7"/>
<path d="M142.459 95.7943H146.136C146.136 97.8696 147.337 99.1442 150.834 99.1442C154.147 99.1442 155.601 98.1245 155.601 96.4859C155.601 95.7943 155.348 95.1754 154.4 94.8478C153.525 94.5202 151.814 94.3384 149.812 94.1562C147.01 93.9013 145.114 93.5373 144.023 92.7362C143.039 92.0083 142.459 90.6973 142.459 89.3141C142.459 85.7098 145.951 83.5255 150.834 83.5255C156.438 83.5255 158.914 85.8557 158.914 89.933H155.237C155.2 87.6033 153.926 86.4746 150.939 86.4746C148.1 86.4746 146.499 87.4938 146.499 89.0229C146.499 89.7876 146.683 90.5156 147.737 90.88C148.611 91.1708 150.323 91.353 152.509 91.5711C155.053 91.8261 156.512 92.0814 157.786 92.8089C158.987 93.4646 159.678 94.8478 159.678 96.3042C159.678 99.9448 156.622 102.093 150.87 102.093C144.677 102.093 142.459 99.3259 142.459 95.7943Z" fill="#3EB1A7"/>
<path d="M164.376 95.3944V87.1303H161.537V83.8177H163.829C164.523 83.8177 164.776 83.4533 164.887 82.4336L165.066 79.7399H168.453V83.8177H174.642V87.1303H168.453V95.1759C168.453 97.506 169.327 98.6711 171.803 98.6711C172.824 98.6711 173.989 98.4889 174.495 98.3435V101.583C173.952 101.766 172.714 102.021 171.218 102.021C166.304 102.021 164.376 99.3627 164.376 95.3944Z" fill="#3EB1A7"/>
<path d="M190.517 90.88C190.517 88.1854 188.842 86.6932 185.892 86.6932C183.09 86.6932 181.305 88.1491 180.835 91.1345H190.517V90.88ZM194.193 93.61H180.725C180.941 97.0689 182.874 98.9256 185.929 98.9256C188.552 98.9256 190.337 97.7605 190.517 95.6489H194.193C194.051 99.6536 190.77 102.093 185.856 102.093C180.177 102.093 176.611 98.5975 176.611 92.9548C176.611 87.1298 180.177 83.5255 185.856 83.5255C190.954 83.5255 194.193 86.5473 194.193 92.1541V93.61Z" fill="#3EB1A7"/>
<path d="M197.727 83.8165H201.803L201.656 88.5491H201.693C202.494 85.4546 204.679 83.5248 207.956 83.5248C211.453 83.5248 213.707 85.3451 214.144 88.2574H214.181C214.835 85.3451 217.02 83.5248 220.444 83.5248C224.447 83.5248 226.743 86.1099 226.743 90.3326V101.801H222.662V91.2432C222.662 88.6218 221.392 87.0196 218.948 87.0196C216.109 87.0196 214.292 89.1312 214.292 92.8814V101.801H210.215V91.1701C210.215 88.6218 208.867 87.0196 206.428 87.0196C203.658 87.0196 201.803 89.168 201.803 93.0268V101.801H197.727V83.8165Z" fill="#3EB1A7"/>
<path d="M0 77.8452H15.0329V79.7387H2.03843V89.4225H13.2522V91.061H2.03843V101.801H0V77.8452Z" fill="#F3F3F3"/>
<path d="M17.18 83.8165H19.1495V101.801H17.18V83.8165ZM17.0742 77.9911H19.2185V81.3769H17.0742V77.9911Z" fill="#F3F3F3"/>
<path d="M23.7325 95.4677V85.565H20.6035V83.8178H23.1527C23.6635 83.8178 23.8797 83.5625 23.9166 82.6891L23.9902 79.7401H25.7019V83.8178H32.5443V85.565H25.7019V95.3582C25.7019 98.38 26.7925 100.164 29.6684 100.164C30.8325 100.164 31.9967 99.9091 32.4338 99.7632V101.474C31.9277 101.657 30.7957 101.911 29.5211 101.911C25.481 101.911 23.7325 99.3629 23.7325 95.4677Z" fill="#F3F3F3"/>
<path d="M34.8418 83.8165H36.8066L36.733 88.804H36.7698C37.7545 85.5273 40.4463 83.5248 44.7441 83.5248C49.548 83.5248 52.3503 86.1462 52.3503 90.6602V101.801H50.3855V91.0247C50.3855 87.384 48.2734 85.3088 44.1597 85.3088C39.793 85.3088 36.8066 87.9666 36.8066 92.5901V101.801H34.8418V83.8165Z" fill="#F3F3F3"/>
<path d="M69.6467 91.353C69.6467 87.3848 67.3138 85.2368 63.6005 85.2368C59.8503 85.2368 57.3425 87.4938 56.8685 91.5348H69.6467V91.353ZM71.5011 93.0275H56.7949C56.8317 97.6147 59.4868 100.382 63.6005 100.382C66.9871 100.382 69.3891 98.6339 69.6467 95.8311H71.5011C71.3217 99.6899 68.1513 102.093 63.6005 102.093C58.249 102.093 54.8301 98.5975 54.8301 92.9548C54.8301 87.1298 58.2122 83.5255 63.5314 83.5255C68.4826 83.5255 71.5011 86.5109 71.5011 91.9356V93.0275Z" fill="#F3F3F3"/>
<path d="M87.9672 100.382C87.8199 100.382 87.6865 100.375 87.5438 100.37C88.6758 99.4483 89.2694 98.1848 89.2694 96.6318C89.2694 95.4161 88.8414 94.3104 88.0086 93.6054C90.5716 93.8498 92.0809 94.0996 92.8447 94.4838C93.719 94.9573 94.0457 95.758 94.0457 96.705C94.0457 98.9983 91.9382 100.382 87.9672 100.382ZM76.7488 91.0618C75.8377 90.6246 75.5846 89.7149 75.5846 88.8411C75.5846 86.6932 77.8394 85.2368 81.2628 85.2368C81.5619 85.2368 81.8426 85.2506 82.1141 85.2709C80.9914 86.204 80.3609 87.4639 80.3609 88.9502C80.3609 90.1953 80.7935 91.3365 81.677 92.0409C79.2566 91.7658 77.6139 91.5132 76.7488 91.0618ZM94.3033 93.2824C93.176 92.6635 91.8646 92.4086 88.7678 92.0814C86.1496 91.7897 84.401 91.5348 83.4899 91.0618C82.5788 90.6246 82.3258 89.7149 82.3258 88.8411C82.3258 87.5417 83.154 86.4985 84.5667 85.8746C85.2201 85.5847 85.9977 85.3854 86.8812 85.2948C87.2401 85.258 87.6128 85.2368 88.004 85.2368C91.6805 85.2368 93.429 86.7659 93.429 89.933H95.2881C95.2881 85.8189 93.0287 83.5255 87.9303 83.5255C86.6925 83.5255 85.5744 83.6898 84.5989 83.9861C83.6464 83.6843 82.5144 83.5255 81.1892 83.5255C76.6016 83.5255 73.6152 85.7098 73.6152 88.9502C73.6152 90.2606 74.0892 91.4621 75.0739 92.1541C76.1276 92.8821 77.913 93.2824 80.9361 93.5737C83.7016 93.8286 85.3029 94.0831 86.1036 94.4838C86.9779 94.9573 87.3045 95.758 87.3045 96.705C87.3045 98.1806 86.4257 99.2762 84.7462 99.8726C84.0145 100.132 83.131 100.296 82.1003 100.355C81.8196 100.371 81.5297 100.382 81.226 100.382C77.1124 100.382 75.4374 98.6707 75.4374 95.7943H73.6152C73.6152 99.4713 75.6169 102.093 81.226 102.093C82.5421 102.093 83.7108 101.959 84.7185 101.705C85.6342 101.953 86.7064 102.093 87.9672 102.093C93.1392 102.093 96.0151 100.054 96.0151 96.6318C96.0151 95.2118 95.4307 93.9377 94.3033 93.2824Z" fill="#F3F3F3"/>
<path d="M2.59061 117.081C2.00622 117.081 1.50468 116.973 1.09055 116.757C0.67182 116.542 0.308297 116.232 0 115.829L0.547545 115.289C0.800625 115.642 1.09513 115.904 1.43103 116.077C1.76234 116.25 2.16268 116.337 2.62282 116.337C3.09677 116.337 3.47869 116.228 3.77319 116.013C4.06308 115.796 4.21032 115.498 4.21032 115.116C4.21032 114.821 4.14128 114.579 4.00784 114.387C3.8744 114.197 3.69956 114.042 3.47409 113.924C3.25322 113.805 3.00936 113.699 2.74707 113.605C2.48479 113.511 2.21787 113.412 1.95099 113.308C1.6841 113.204 1.44484 113.075 1.22397 112.92C1.0031 112.764 0.828261 112.563 0.690217 112.315C0.552174 112.066 0.483152 111.752 0.483152 111.371C0.483152 110.968 0.579755 110.622 0.777618 110.334C0.970878 110.046 1.23778 109.825 1.57829 109.67C1.9234 109.515 2.30991 109.438 2.74244 109.438C3.221 109.438 3.65353 109.531 4.03085 109.719C4.40817 109.906 4.72107 110.158 4.97415 110.474L4.4266 111.025C4.19193 110.744 3.94345 110.534 3.66736 110.393C3.39588 110.253 3.07835 110.183 2.71944 110.183C2.2869 110.183 1.94179 110.284 1.68411 110.485C1.42183 110.687 1.29299 110.968 1.29299 111.327C1.29299 111.601 1.36203 111.824 1.49547 111.996C1.62891 112.169 1.80375 112.313 2.02922 112.429C2.25009 112.544 2.49396 112.646 2.75624 112.736C3.01852 112.826 3.28544 112.925 3.55233 113.033C3.81461 113.141 4.05848 113.278 4.27935 113.443C4.50022 113.609 4.67505 113.819 4.8131 114.074C4.95114 114.33 5.02016 114.656 5.02016 115.051C5.02016 115.692 4.79928 116.191 4.36675 116.547C3.92961 116.903 3.33604 117.081 2.59061 117.081Z" fill="#F3F3F3"/>
<path d="M6.33603 116.975V111.901H7.09985V116.975H6.33603ZM6.71331 110.811C6.57067 110.811 6.44643 110.757 6.3452 110.648C6.24397 110.54 6.19336 110.415 6.19336 110.27C6.19336 110.119 6.24397 109.993 6.3452 109.893C6.44643 109.792 6.57067 109.742 6.71331 109.742C6.86976 109.742 6.99864 109.792 7.09527 109.893C7.1919 109.993 7.24248 110.119 7.24248 110.27C7.24248 110.415 7.1919 110.54 7.09527 110.648C6.99864 110.757 6.86976 110.811 6.71331 110.811Z" fill="#F3F3F3"/>
<path d="M10.1873 117.081C9.91581 117.081 9.65355 117.043 9.40047 116.968C9.14739 116.892 8.9219 116.786 8.71484 116.649C8.51237 116.513 8.32832 116.351 8.17188 116.164L8.66882 115.667C8.86668 115.912 9.09677 116.093 9.35446 116.212C9.60754 116.331 9.89281 116.39 10.2103 116.39C10.5416 116.39 10.8039 116.325 10.9926 116.196C11.1858 116.066 11.2779 115.887 11.2779 115.656C11.2779 115.44 11.2134 115.273 11.08 115.154C10.9466 115.035 10.7717 114.939 10.5554 114.863C10.3391 114.787 10.1137 114.715 9.87441 114.647C9.63974 114.579 9.41428 114.492 9.20262 114.387C8.99095 114.284 8.81608 114.139 8.67803 113.956C8.53999 113.772 8.47097 113.526 8.47097 113.216C8.47097 112.929 8.5446 112.678 8.68725 112.466C8.83449 112.254 9.03236 112.088 9.29465 111.97C9.55233 111.851 9.8652 111.791 10.2333 111.791C10.6152 111.791 10.9603 111.86 11.2686 111.996C11.5769 112.133 11.8254 112.335 12.0141 112.601L11.5171 113.098C11.3745 112.903 11.1858 112.752 10.9604 112.644C10.7349 112.536 10.4818 112.482 10.2011 112.482C9.87444 112.482 9.63053 112.545 9.46028 112.671C9.29003 112.797 9.2072 112.961 9.2072 113.162C9.2072 113.357 9.27624 113.51 9.40968 113.621C9.54773 113.733 9.72255 113.823 9.93422 113.891C10.1459 113.96 10.3714 114.028 10.6106 114.096C10.8453 114.165 11.0754 114.255 11.2916 114.366C11.5079 114.478 11.6782 114.629 11.8116 114.819C11.9451 115.01 12.0141 115.268 12.0141 115.592C12.0141 116.045 11.8484 116.406 11.5217 116.677C11.195 116.946 10.7487 117.081 10.1873 117.081Z" fill="#F3F3F3"/>
<path d="M13.9855 116.975V109.763H14.754V116.975H13.9855ZM12.7109 112.591V111.901H16.0286V112.591H12.7109Z" fill="#F3F3F3"/>
<path d="M19.3974 117.081C18.8912 117.081 18.4403 116.966 18.0353 116.735C17.6304 116.505 17.3129 116.189 17.0783 115.786C16.8436 115.383 16.7285 114.929 16.7285 114.426C16.7285 113.929 16.8436 113.481 17.069 113.081C17.2945 112.682 17.6074 112.367 18.0031 112.137C18.3988 111.907 18.8406 111.791 19.3283 111.791C19.7977 111.791 20.2118 111.896 20.5661 112.105C20.9251 112.313 21.2057 112.603 21.4082 112.974C21.6153 113.345 21.7165 113.771 21.7165 114.253C21.7165 114.311 21.7119 114.377 21.7073 114.452C21.6981 114.528 21.6843 114.617 21.6613 114.717H17.2669V114.069H21.2426L20.9711 114.307C20.9803 113.94 20.9159 113.621 20.7824 113.352C20.649 113.081 20.4603 112.871 20.2118 112.72C19.9633 112.569 19.6642 112.493 19.3191 112.493C18.951 112.493 18.6335 112.574 18.3574 112.736C18.086 112.898 17.8697 113.121 17.7178 113.405C17.5614 113.69 17.4832 114.022 17.4832 114.404C17.4832 114.792 17.566 115.134 17.727 115.43C17.8881 115.725 18.1182 115.955 18.408 116.12C18.6979 116.286 19.0339 116.369 19.4158 116.369C19.7195 116.369 20.0002 116.313 20.2578 116.201C20.5201 116.09 20.7364 115.923 20.9158 115.699L21.4128 116.196C21.1781 116.484 20.8836 116.703 20.5293 116.855C20.175 117.006 19.7977 117.081 19.3974 117.081Z" fill="#F3F3F3"/>
<path d="M29.8483 116.975V113.865C29.8483 113.448 29.7194 113.117 29.4664 112.872C29.2179 112.627 28.9004 112.505 28.5185 112.505C28.2654 112.505 28.0353 112.561 27.8237 112.673C27.612 112.784 27.4417 112.941 27.3129 113.142C27.1887 113.344 27.1242 113.581 27.1242 113.854L26.6733 113.714C26.6963 113.326 26.7975 112.987 26.9816 112.699C27.1656 112.412 27.4049 112.189 27.704 112.03C28.0031 111.872 28.3298 111.792 28.6933 111.792C29.0522 111.792 29.3789 111.872 29.6688 112.03C29.9587 112.189 30.1888 112.412 30.3591 112.699C30.5293 112.987 30.6121 113.329 30.6121 113.725V116.975H29.8483ZM26.3604 116.975V113.865C26.3604 113.448 26.2316 113.117 25.9831 112.872C25.73 112.627 25.4125 112.505 25.0306 112.505C24.7729 112.505 24.5382 112.561 24.3266 112.673C24.1103 112.784 23.9446 112.941 23.8158 113.142C23.6916 113.344 23.6271 113.581 23.6271 113.854L23.282 113.714C23.282 113.326 23.3694 112.987 23.5397 112.699C23.7146 112.412 23.9446 112.189 24.2391 112.03C24.529 111.872 24.8603 111.792 25.2239 111.792C25.5874 111.792 25.9095 111.872 26.1902 112.03C26.4755 112.189 26.7009 112.412 26.8712 112.699C27.0414 112.987 27.1242 113.329 27.1242 113.725V116.975H26.3604ZM22.8633 116.975V111.901H23.6271V116.975H22.8633Z" fill="#F3F3F3"/>
<path d="M36.0561 116.973V115.613L36.2033 114.361L36.0561 113.141V111.899H36.8199V116.973H36.0561ZM34.349 116.358C34.8827 116.358 35.3061 116.182 35.6236 115.829C35.9411 115.477 36.0975 115.012 36.0975 114.436C36.0975 114.055 36.0239 113.72 35.8812 113.432C35.7386 113.145 35.5315 112.92 35.2646 112.758C34.9977 112.596 34.6895 112.515 34.3397 112.515C33.9854 112.515 33.668 112.598 33.3919 112.763C33.1158 112.929 32.8949 113.155 32.7338 113.443C32.5728 113.731 32.49 114.063 32.49 114.436C32.49 114.81 32.5728 115.142 32.7338 115.43C32.8949 115.718 33.1158 115.944 33.3964 116.109C33.6771 116.275 33.9946 116.358 34.349 116.358ZM34.2293 117.081C33.7553 117.081 33.3274 116.965 32.9455 116.73C32.5636 116.496 32.2599 116.182 32.039 115.786C31.8136 115.39 31.7031 114.944 31.7031 114.447C31.7031 113.944 31.8136 113.492 32.039 113.093C32.2599 112.693 32.5636 112.377 32.9409 112.142C33.3182 111.908 33.7462 111.791 34.2201 111.791C34.6066 111.791 34.9563 111.869 35.26 112.024C35.5683 112.178 35.8168 112.394 36.0101 112.671C36.2033 112.949 36.3184 113.271 36.3552 113.638V115.225C36.3138 115.592 36.1941 115.916 36.0055 116.196C35.8168 116.477 35.5683 116.695 35.2646 116.849C34.9655 117.004 34.6204 117.081 34.2293 117.081Z" fill="#F3F3F3"/>
<path d="M45.4494 116.973H44.681V115.613L44.842 114.361L44.681 113.141V109.33H45.4494V116.973ZM42.9554 116.358C43.3051 116.358 43.618 116.275 43.8849 116.109C44.1472 115.944 44.3542 115.718 44.5015 115.43C44.6487 115.142 44.727 114.81 44.727 114.436C44.727 114.055 44.6487 113.72 44.4969 113.432C44.345 113.145 44.138 112.92 43.8711 112.758C43.6042 112.596 43.2959 112.515 42.9416 112.515C42.5919 112.515 42.279 112.598 42.0075 112.763C41.7406 112.929 41.5244 113.155 41.3679 113.443C41.2069 113.731 41.1286 114.063 41.1286 114.436C41.1286 114.81 41.2068 115.143 41.3633 115.435C41.5151 115.726 41.7314 115.953 42.0075 116.115C42.2882 116.277 42.6011 116.358 42.9554 116.358ZM42.8266 117.081C42.348 117.081 41.9247 116.966 41.552 116.735C41.1746 116.505 40.8802 116.191 40.6639 115.791C40.4476 115.391 40.3418 114.944 40.3418 114.447C40.3418 113.944 40.4476 113.492 40.6639 113.093C40.8802 112.693 41.1792 112.377 41.5566 112.142C41.9339 111.908 42.3572 111.791 42.8266 111.791C43.1993 111.791 43.5444 111.867 43.8573 112.018C44.1702 112.169 44.4279 112.383 44.6257 112.66C44.8282 112.938 44.9524 113.263 44.9938 113.638V115.225C44.9524 115.592 44.8328 115.914 44.6349 116.191C44.4371 116.468 44.1794 116.685 43.8665 116.844C43.5536 117.002 43.2039 117.081 42.8266 117.081Z" fill="#F3F3F3"/>
<path d="M49.299 117.081C48.7974 117.081 48.3419 116.966 47.9416 116.735C47.5366 116.505 47.2191 116.189 46.9845 115.786C46.7498 115.383 46.6348 114.929 46.6348 114.426C46.6348 113.929 46.7452 113.481 46.9752 113.081C47.2007 112.682 47.5137 112.367 47.9094 112.137C48.3051 111.907 48.7468 111.791 49.2346 111.791C49.7039 111.791 50.1134 111.896 50.4723 112.105C50.8267 112.313 51.1074 112.603 51.3144 112.974C51.5169 113.345 51.6227 113.771 51.6227 114.253C51.6227 114.311 51.6181 114.377 51.6089 114.452C51.6043 114.528 51.5905 114.617 51.5675 114.717H47.1731V114.069H51.1442L50.8773 114.307C50.8819 113.94 50.8221 113.621 50.6886 113.352C50.5552 113.081 50.3619 112.871 50.1134 112.72C49.865 112.569 49.5705 112.493 49.2254 112.493C48.8573 112.493 48.5351 112.574 48.2637 112.736C47.9922 112.898 47.7759 113.121 47.6194 113.405C47.4676 113.69 47.3894 114.022 47.3894 114.404C47.3894 114.792 47.4722 115.134 47.6333 115.43C47.7943 115.725 48.0198 115.955 48.3143 116.12C48.6042 116.286 48.9401 116.369 49.322 116.369C49.6257 116.369 49.9064 116.313 50.1641 116.201C50.4218 116.09 50.6426 115.923 50.8221 115.699L51.319 116.196C51.0798 116.484 50.7853 116.703 50.4355 116.855C50.0812 117.006 49.7039 117.081 49.299 117.081Z" fill="#F3F3F3"/>
<path d="M55.8193 115.042V114.351H59.7076V115.042H55.8193ZM54.4297 116.975L57.4621 109.547H58.0648L61.0788 116.975H60.2137L57.6001 110.422H57.913L55.2718 116.975H54.4297Z" fill="#F3F3F3"/>
<path d="M64.0142 116.975L61.6582 111.901H62.5141L64.4881 116.338H64.0049L66.0019 111.901H66.821L64.4559 116.975H64.0142Z" fill="#F3F3F3"/>
<path d="M71.7859 116.973V115.613L71.9377 114.361L71.7859 113.141V111.899H72.5543V116.973H71.7859ZM70.0787 116.358C70.6125 116.358 71.0359 116.182 71.3534 115.829C71.6709 115.477 71.8319 115.012 71.8319 114.436C71.8319 114.055 71.7583 113.72 71.6156 113.432C71.4684 113.145 71.2659 112.92 70.999 112.758C70.7322 112.596 70.4238 112.515 70.0695 112.515C69.7152 112.515 69.4023 112.598 69.1262 112.763C68.8502 112.929 68.6293 113.155 68.4682 113.443C68.3026 113.731 68.2244 114.063 68.2244 114.436C68.2244 114.81 68.3026 115.142 68.4682 115.43C68.6293 115.718 68.8501 115.944 69.1308 116.109C69.4115 116.275 69.729 116.358 70.0787 116.358ZM69.9637 117.081C69.4852 117.081 69.0572 116.965 68.6753 116.73C68.298 116.496 67.9943 116.182 67.7688 115.786C67.5479 115.39 67.4375 114.944 67.4375 114.447C67.4375 113.944 67.5479 113.492 67.7688 113.093C67.9943 112.693 68.2934 112.377 68.6707 112.142C69.048 111.908 69.476 111.791 69.9499 111.791C70.341 111.791 70.6861 111.869 70.9944 112.024C71.2981 112.178 71.5512 112.394 71.7445 112.671C71.9377 112.949 72.0528 113.271 72.0896 113.638V115.225C72.0436 115.592 71.9285 115.916 71.7399 116.196C71.5466 116.477 71.3027 116.695 70.999 116.849C70.6953 117.004 70.3502 117.081 69.9637 117.081Z" fill="#F3F3F3"/>
<path d="M74.0625 116.975V109.331H74.831V116.975H74.0625Z" fill="#F3F3F3"/>
<path d="M76.3633 116.975V111.901H77.1272V116.975H76.3633ZM76.7407 110.811C76.598 110.811 76.4738 110.757 76.3725 110.648C76.2713 110.54 76.2207 110.415 76.2207 110.27C76.2207 110.119 76.2713 109.993 76.3725 109.893C76.4738 109.792 76.598 109.742 76.7407 109.742C76.8971 109.742 77.0259 109.792 77.1226 109.893C77.2192 109.993 77.2698 110.119 77.2698 110.27C77.2698 110.415 77.2192 110.54 77.1226 110.648C77.0259 110.757 76.8971 110.811 76.7407 110.811Z" fill="#F3F3F3"/>
<path d="M82.6784 116.973V115.613L82.8303 114.361L82.6784 113.141V111.899H83.4469V116.973H82.6784ZM80.9759 116.358C81.5051 116.358 81.933 116.182 82.2459 115.829C82.5634 115.477 82.7245 115.012 82.7245 114.436C82.7245 114.055 82.6508 113.72 82.5082 113.432C82.3609 113.145 82.1585 112.92 81.8916 112.758C81.6247 112.596 81.3164 112.515 80.9621 112.515C80.6124 112.515 80.2949 112.598 80.0188 112.763C79.7427 112.929 79.5219 113.155 79.3608 113.443C79.1998 113.731 79.1169 114.063 79.1169 114.436C79.1169 114.81 79.1998 115.142 79.3608 115.43C79.5219 115.718 79.7427 115.944 80.0234 116.109C80.3041 116.275 80.6216 116.358 80.9759 116.358ZM80.8563 117.081C80.3823 117.081 79.9544 116.965 79.5725 116.73C79.1905 116.496 78.8868 116.182 78.666 115.786C78.4405 115.39 78.3301 114.944 78.3301 114.447C78.3301 113.944 78.4405 113.492 78.666 113.093C78.8868 112.693 79.1859 112.377 79.5633 112.142C79.9452 111.908 80.3685 111.791 80.8425 111.791C81.2336 111.791 81.5787 111.869 81.887 112.024C82.1907 112.178 82.4438 112.394 82.637 112.671C82.8303 112.949 82.9453 113.271 82.9821 113.638V115.225C82.9407 115.592 82.8211 115.916 82.6324 116.196C82.4392 116.477 82.1953 116.695 81.8916 116.849C81.5879 117.004 81.2428 117.081 80.8563 117.081Z" fill="#F3F3F3"/>
<path d="M86.9217 119.217C86.687 119.217 86.4661 119.182 86.2591 119.114C86.052 119.046 85.8633 118.947 85.6839 118.817L86.0704 118.385C86.1717 118.472 86.2867 118.542 86.4201 118.596C86.5536 118.65 86.7054 118.677 86.8803 118.677C87.1195 118.677 87.2944 118.639 87.4141 118.563C87.5337 118.488 87.5935 118.389 87.5935 118.267C87.5935 118.137 87.5291 118.032 87.4094 117.954C87.2852 117.875 87.1057 117.835 86.8711 117.835H86.4708L86.7837 116.853H87.4094L87.161 117.608L86.8711 117.36C87.299 117.352 87.6441 117.434 87.8926 117.603C88.1457 117.772 88.2745 117.996 88.2745 118.278C88.2745 118.558 88.1503 118.785 87.911 118.957C87.6717 119.13 87.3404 119.217 86.9217 119.217ZM87.2668 117.079C86.7698 117.079 86.3235 116.963 85.9232 116.728C85.5228 116.494 85.2099 116.176 84.9799 115.773C84.7498 115.37 84.6348 114.92 84.6348 114.423C84.6348 113.927 84.7498 113.479 84.9799 113.079C85.2099 112.68 85.5228 112.365 85.9232 112.135C86.3235 111.905 86.7698 111.789 87.2668 111.789C87.6579 111.789 88.0168 111.861 88.3481 112.005C88.6794 112.149 88.9601 112.351 89.1902 112.61L88.684 113.128C88.5092 112.934 88.3021 112.784 88.0628 112.68C87.819 112.576 87.5567 112.523 87.2668 112.523C86.9171 112.523 86.5996 112.606 86.3189 112.772C86.0382 112.937 85.8173 113.162 85.6609 113.446C85.4998 113.73 85.4216 114.056 85.4216 114.423C85.4216 114.79 85.4998 115.12 85.6609 115.411C85.8173 115.703 86.0382 115.931 86.3189 116.097C86.5996 116.263 86.9171 116.345 87.2668 116.345C87.5567 116.345 87.8236 116.293 88.0674 116.189C88.3113 116.084 88.523 115.935 88.7025 115.74L89.2132 116.248C88.9739 116.514 88.6886 116.719 88.3527 116.863C88.0168 117.007 87.6579 117.079 87.2668 117.079Z" fill="#F3F3F3"/>
<path d="M94.2819 116.973V115.613L94.4338 114.361L94.2819 113.141V111.899H95.0504V116.973H94.2819ZM93.4951 111.057C93.265 111.057 93.0718 111.016 92.9107 110.933C92.7543 110.85 92.6024 110.77 92.4552 110.691C92.3079 110.611 92.1423 110.572 91.9629 110.572C91.7696 110.572 91.6177 110.608 91.5073 110.68C91.4015 110.751 91.3002 110.852 91.2082 110.982L90.7849 110.572C90.9459 110.377 91.1115 110.219 91.2864 110.097C91.4658 109.974 91.6867 109.913 91.9536 109.913C92.1883 109.913 92.3907 109.953 92.5518 110.032C92.7128 110.111 92.8647 110.192 93.0074 110.275C93.1546 110.357 93.3111 110.399 93.4859 110.399C93.6562 110.399 93.7988 110.365 93.9046 110.296C94.0151 110.228 94.1117 110.129 94.1991 109.999L94.6179 110.399C94.466 110.6 94.305 110.761 94.1255 110.879C93.9507 110.998 93.739 111.057 93.4951 111.057ZM92.5794 116.358C93.1085 116.358 93.5365 116.182 93.854 115.829C94.1669 115.477 94.3279 115.012 94.3279 114.436C94.3279 114.055 94.2543 113.72 94.1117 113.432C93.9691 113.145 93.762 112.92 93.4951 112.758C93.2282 112.596 92.9199 112.515 92.5656 112.515C92.2159 112.515 91.8984 112.598 91.6223 112.763C91.3462 112.929 91.1253 113.155 90.9643 113.443C90.8032 113.731 90.7204 114.063 90.7204 114.436C90.7204 114.81 90.8032 115.142 90.9643 115.43C91.1253 115.718 91.3462 115.944 91.6269 116.109C91.9076 116.275 92.2251 116.358 92.5794 116.358ZM92.4598 117.081C91.9858 117.081 91.5579 116.965 91.1759 116.73C90.794 116.496 90.4904 116.182 90.2695 115.786C90.044 115.39 89.9336 114.944 89.9336 114.447C89.9336 113.944 90.044 113.492 90.2695 113.093C90.4904 112.693 90.7895 112.377 91.1668 112.142C91.5487 111.908 91.9721 111.791 92.446 111.791C92.8371 111.791 93.1822 111.869 93.4905 112.024C93.7942 112.178 94.0473 112.394 94.2406 112.671C94.4338 112.949 94.5489 113.271 94.5857 113.638V115.225C94.5443 115.592 94.4246 115.916 94.2359 116.196C94.0426 116.477 93.7988 116.695 93.4951 116.849C93.1914 117.004 92.8463 117.081 92.4598 117.081Z" fill="#F3F3F3"/>
<path d="M98.8704 116.347C99.2247 116.347 99.5421 116.265 99.8228 116.099C100.104 115.933 100.324 115.703 100.481 115.408C100.637 115.113 100.72 114.782 100.72 114.415C100.72 114.055 100.637 113.733 100.476 113.448C100.315 113.164 100.094 112.939 99.8182 112.774C99.5376 112.608 99.2247 112.525 98.8704 112.525C98.5207 112.525 98.2032 112.608 97.9225 112.774C97.6418 112.939 97.4209 113.164 97.2644 113.448C97.1034 113.733 97.0252 114.055 97.0252 114.415C97.0252 114.789 97.1034 115.122 97.2644 115.413C97.4209 115.705 97.6418 115.933 97.9225 116.099C98.2032 116.265 98.5207 116.347 98.8704 116.347ZM98.8704 117.081C98.378 117.081 97.9317 116.962 97.5359 116.725C97.1356 116.487 96.8227 116.167 96.5881 115.764C96.3534 115.361 96.2383 114.911 96.2383 114.415C96.2383 113.925 96.3534 113.483 96.5881 113.087C96.8227 112.691 97.1356 112.377 97.5359 112.142C97.9317 111.908 98.378 111.791 98.8704 111.791C99.3627 111.791 99.8045 111.907 100.205 112.137C100.605 112.367 100.923 112.682 101.157 113.081C101.387 113.481 101.507 113.925 101.507 114.415C101.507 114.919 101.387 115.37 101.157 115.769C100.923 116.169 100.605 116.487 100.205 116.725C99.8045 116.962 99.3627 117.081 98.8704 117.081Z" fill="#F3F3F3"/>
<path d="M107.356 117.081C106.854 117.081 106.399 116.966 105.998 116.735C105.593 116.505 105.276 116.189 105.041 115.786C104.806 115.383 104.691 114.929 104.691 114.426C104.691 113.929 104.806 113.481 105.032 113.081C105.257 112.682 105.57 112.367 105.966 112.137C106.362 111.907 106.803 111.791 107.291 111.791C107.761 111.791 108.175 111.896 108.529 112.105C108.883 112.313 109.164 112.603 109.371 112.974C109.578 113.345 109.679 113.771 109.679 114.253C109.679 114.311 109.675 114.377 109.67 114.452C109.661 114.528 109.647 114.617 109.624 114.717H105.23V114.069H109.205L108.934 114.307C108.939 113.94 108.879 113.621 108.745 113.352C108.612 113.081 108.423 112.871 108.175 112.72C107.926 112.569 107.627 112.493 107.282 112.493C106.914 112.493 106.596 112.574 106.32 112.736C106.049 112.898 105.833 113.121 105.681 113.405C105.524 113.69 105.446 114.022 105.446 114.404C105.446 114.792 105.529 115.134 105.69 115.43C105.851 115.725 106.076 115.955 106.371 116.12C106.661 116.286 106.997 116.369 107.379 116.369C107.682 116.369 107.963 116.313 108.221 116.201C108.478 116.09 108.699 115.923 108.879 115.699L109.376 116.196C109.141 116.484 108.842 116.703 108.492 116.855C108.138 117.006 107.761 117.081 107.356 117.081Z" fill="#F3F3F3"/>
<path d="M113.844 113.995V113.293H116.025C116.337 113.293 116.609 113.232 116.853 113.11C117.092 112.987 117.281 112.813 117.419 112.586C117.557 112.36 117.626 112.088 117.626 111.771C117.626 111.455 117.557 111.183 117.419 110.956C117.281 110.729 117.092 110.555 116.853 110.433C116.609 110.31 116.337 110.249 116.025 110.249H113.844V109.547H116.089C116.535 109.547 116.936 109.639 117.29 109.823C117.64 110.006 117.92 110.265 118.127 110.6C118.33 110.934 118.436 111.325 118.436 111.771C118.436 112.225 118.33 112.617 118.127 112.948C117.92 113.279 117.64 113.536 117.29 113.72C116.936 113.903 116.535 113.995 116.089 113.995H113.844ZM113.328 116.975V109.547H114.124V116.975H113.328Z" fill="#F3F3F3"/>
<path d="M120.466 114.017L120.153 113.887C120.153 113.239 120.309 112.728 120.622 112.354C120.935 111.98 121.363 111.792 121.911 111.792C122.164 111.792 122.394 111.838 122.601 111.927C122.808 112.018 123.006 112.16 123.185 112.354L122.679 112.883C122.559 112.754 122.43 112.66 122.283 112.602C122.136 112.545 121.966 112.516 121.782 112.516C121.391 112.516 121.078 112.642 120.829 112.894C120.585 113.146 120.466 113.52 120.466 114.017ZM119.697 116.975V111.901H120.466V116.975H119.697Z" fill="#F3F3F3"/>
<path d="M126.143 117.081C125.637 117.081 125.186 116.966 124.781 116.735C124.377 116.505 124.059 116.189 123.824 115.786C123.594 115.383 123.475 114.929 123.475 114.426C123.475 113.929 123.59 113.481 123.815 113.081C124.041 112.682 124.354 112.367 124.749 112.137C125.145 111.907 125.587 111.791 126.079 111.791C126.544 111.791 126.958 111.896 127.312 112.105C127.671 112.313 127.952 112.603 128.154 112.974C128.361 113.345 128.463 113.771 128.463 114.253C128.463 114.311 128.458 114.377 128.453 114.452C128.444 114.528 128.43 114.617 128.407 114.717H124.013V114.069H127.989L127.717 114.307C127.726 113.94 127.662 113.621 127.528 113.352C127.395 113.081 127.206 112.871 126.958 112.72C126.709 112.569 126.41 112.493 126.065 112.493C125.697 112.493 125.38 112.574 125.104 112.736C124.832 112.898 124.616 113.121 124.464 113.405C124.307 113.69 124.229 114.022 124.229 114.404C124.229 114.792 124.312 115.134 124.473 115.43C124.634 115.725 124.864 115.955 125.154 116.12C125.444 116.286 125.78 116.369 126.162 116.369C126.466 116.369 126.746 116.313 127.004 116.201C127.266 116.09 127.482 115.923 127.662 115.699L128.159 116.196C127.924 116.484 127.63 116.703 127.275 116.855C126.921 117.006 126.544 117.081 126.143 117.081Z" fill="#F3F3F3"/>
<path d="M131.174 117.081C130.898 117.081 130.636 117.043 130.388 116.968C130.134 116.892 129.904 116.786 129.702 116.649C129.495 116.513 129.315 116.351 129.154 116.164L129.651 115.667C129.854 115.912 130.079 116.093 130.337 116.212C130.595 116.331 130.88 116.39 131.197 116.39C131.524 116.39 131.786 116.325 131.98 116.196C132.168 116.066 132.265 115.887 132.265 115.656C132.265 115.44 132.196 115.273 132.062 115.154C131.929 115.035 131.754 114.939 131.542 114.863C131.326 114.787 131.096 114.715 130.861 114.647C130.622 114.579 130.397 114.492 130.185 114.387C129.973 114.284 129.798 114.139 129.66 113.956C129.527 113.772 129.458 113.526 129.458 113.216C129.458 112.929 129.527 112.678 129.674 112.466C129.817 112.254 130.019 112.088 130.277 111.97C130.539 111.851 130.852 111.791 131.216 111.791C131.598 111.791 131.943 111.86 132.251 111.996C132.564 112.133 132.812 112.335 132.997 112.601L132.5 113.098C132.357 112.903 132.173 112.752 131.947 112.644C131.717 112.536 131.464 112.482 131.184 112.482C130.861 112.482 130.613 112.545 130.447 112.671C130.277 112.797 130.19 112.961 130.19 113.162C130.19 113.357 130.259 113.51 130.397 113.621C130.535 113.733 130.71 113.823 130.921 113.891C131.133 113.96 131.358 114.028 131.593 114.096C131.832 114.165 132.058 114.255 132.274 114.366C132.49 114.478 132.665 114.629 132.799 114.819C132.932 115.01 132.997 115.268 132.997 115.592C132.997 116.045 132.835 116.406 132.509 116.677C132.177 116.946 131.736 117.081 131.174 117.081Z" fill="#F3F3F3"/>
<path d="M136.496 117.081C135.999 117.081 135.548 116.965 135.148 116.73C134.752 116.496 134.435 116.178 134.204 115.775C133.974 115.372 133.859 114.922 133.859 114.426C133.859 113.929 133.974 113.481 134.204 113.081C134.435 112.682 134.752 112.367 135.148 112.137C135.548 111.907 135.999 111.791 136.496 111.791C136.882 111.791 137.241 111.863 137.573 112.008C137.904 112.152 138.185 112.353 138.415 112.612L137.909 113.13C137.734 112.936 137.527 112.787 137.287 112.682C137.048 112.578 136.781 112.525 136.496 112.525C136.142 112.525 135.824 112.608 135.543 112.774C135.263 112.939 135.042 113.164 134.885 113.448C134.729 113.733 134.646 114.058 134.646 114.426C134.646 114.792 134.729 115.122 134.885 115.413C135.042 115.705 135.263 115.933 135.543 116.099C135.824 116.265 136.142 116.347 136.496 116.347C136.781 116.347 137.048 116.295 137.292 116.191C137.536 116.086 137.748 115.937 137.932 115.742L138.438 116.25C138.199 116.516 137.913 116.721 137.577 116.865C137.246 117.009 136.882 117.081 136.496 117.081Z" fill="#F3F3F3"/>
<path d="M140.253 114.017L139.94 113.887C139.94 113.239 140.096 112.728 140.409 112.354C140.722 111.98 141.15 111.792 141.698 111.792C141.951 111.792 142.181 111.838 142.388 111.927C142.6 112.018 142.793 112.16 142.972 112.354L142.466 112.883C142.351 112.754 142.218 112.66 142.07 112.602C141.923 112.545 141.758 112.516 141.569 112.516C141.182 112.516 140.865 112.642 140.621 112.894C140.372 113.146 140.253 113.52 140.253 114.017ZM139.484 116.975V111.901H140.253V116.975H139.484Z" fill="#F3F3F3"/>
<path d="M143.77 116.975V111.901H144.533V116.975H143.77ZM144.147 110.811C144.004 110.811 143.88 110.757 143.779 110.648C143.678 110.54 143.627 110.415 143.627 110.27C143.627 110.119 143.678 109.993 143.779 109.893C143.88 109.792 144.004 109.742 144.147 109.742C144.303 109.742 144.432 109.792 144.529 109.893C144.625 109.993 144.676 110.119 144.676 110.27C144.676 110.415 144.625 110.54 144.529 110.648C144.432 110.757 144.303 110.811 144.147 110.811Z" fill="#F3F3F3"/>
<path d="M148.023 119.217C147.784 119.217 147.563 119.182 147.361 119.114C147.154 119.046 146.96 118.947 146.781 118.817L147.172 118.385C147.273 118.472 147.388 118.542 147.522 118.596C147.655 118.65 147.807 118.677 147.982 118.677C148.216 118.677 148.396 118.639 148.516 118.563C148.635 118.488 148.695 118.389 148.695 118.267C148.695 118.137 148.631 118.032 148.511 117.954C148.387 117.875 148.207 117.835 147.968 117.835H147.572L147.885 116.853H148.511L148.263 117.608L147.968 117.36C148.401 117.352 148.741 117.434 148.994 117.603C149.247 117.772 149.371 117.996 149.371 118.278C149.371 118.558 149.252 118.785 149.013 118.957C148.769 119.13 148.442 119.217 148.023 119.217ZM148.368 117.079C147.871 117.079 147.425 116.963 147.025 116.728C146.624 116.494 146.312 116.176 146.081 115.773C145.851 115.37 145.736 114.92 145.736 114.423C145.736 113.927 145.851 113.479 146.081 113.079C146.312 112.68 146.624 112.365 147.025 112.135C147.425 111.905 147.871 111.789 148.368 111.789C148.759 111.789 149.118 111.861 149.45 112.005C149.781 112.149 150.062 112.351 150.292 112.61L149.786 113.128C149.611 112.934 149.404 112.784 149.164 112.68C148.921 112.576 148.658 112.523 148.368 112.523C148.014 112.523 147.701 112.606 147.42 112.772C147.14 112.937 146.919 113.162 146.762 113.446C146.601 113.73 146.523 114.056 146.523 114.423C146.523 114.79 146.601 115.12 146.762 115.411C146.919 115.703 147.14 115.931 147.42 116.097C147.701 116.263 148.014 116.345 148.368 116.345C148.658 116.345 148.925 116.293 149.169 116.189C149.413 116.084 149.625 115.935 149.804 115.74L150.31 116.248C150.076 116.514 149.79 116.719 149.454 116.863C149.118 117.007 148.759 117.079 148.368 117.079Z" fill="#F3F3F3"/>
<path d="M155.385 116.973V115.613L155.537 114.361L155.385 113.141V111.899H156.154V116.973H155.385ZM154.599 111.057C154.369 111.057 154.175 111.016 154.014 110.933C153.858 110.85 153.701 110.77 153.554 110.691C153.407 110.611 153.246 110.572 153.066 110.572C152.873 110.572 152.721 110.608 152.611 110.68C152.505 110.751 152.404 110.852 152.312 110.982L151.888 110.572C152.045 110.377 152.215 110.219 152.39 110.097C152.565 109.974 152.79 109.913 153.053 109.913C153.292 109.913 153.49 109.953 153.655 110.032C153.816 110.111 153.968 110.192 154.111 110.275C154.258 110.357 154.415 110.399 154.585 110.399C154.76 110.399 154.902 110.365 155.008 110.296C155.114 110.228 155.215 110.129 155.298 109.999L155.721 110.399C155.57 110.6 155.404 110.761 155.229 110.879C155.054 110.998 154.843 111.057 154.599 111.057ZM153.678 116.358C154.212 116.358 154.635 116.182 154.953 115.829C155.27 115.477 155.431 115.012 155.431 114.436C155.431 114.055 155.358 113.72 155.215 113.432C155.068 113.145 154.866 112.92 154.599 112.758C154.332 112.596 154.024 112.515 153.669 112.515C153.315 112.515 153.002 112.598 152.726 112.763C152.45 112.929 152.229 113.155 152.068 113.443C151.907 113.731 151.824 114.063 151.824 114.436C151.824 114.81 151.907 115.142 152.068 115.43C152.229 115.718 152.45 115.944 152.73 116.109C153.011 116.275 153.329 116.358 153.678 116.358ZM153.563 117.081C153.085 117.081 152.657 116.965 152.275 116.73C151.898 116.496 151.594 116.182 151.368 115.786C151.148 115.39 151.037 114.944 151.037 114.447C151.037 113.944 151.148 113.492 151.368 113.093C151.594 112.693 151.893 112.377 152.27 112.142C152.648 111.908 153.076 111.791 153.549 111.791C153.941 111.791 154.286 111.869 154.594 112.024C154.898 112.178 155.146 112.394 155.344 112.671C155.537 112.949 155.652 113.271 155.689 113.638V115.225C155.643 115.592 155.528 115.916 155.339 116.196C155.146 116.477 154.902 116.695 154.599 116.849C154.295 117.004 153.95 117.081 153.563 117.081Z" fill="#F3F3F3"/>
<path d="M159.974 116.347C160.328 116.347 160.646 116.265 160.926 116.099C161.207 115.933 161.423 115.703 161.584 115.408C161.741 115.113 161.819 114.782 161.819 114.415C161.819 114.055 161.741 113.733 161.58 113.448C161.414 113.164 161.198 112.939 160.917 112.774C160.641 112.608 160.328 112.525 159.974 112.525C159.624 112.525 159.307 112.608 159.026 112.774C158.745 112.939 158.524 113.164 158.368 113.448C158.207 113.733 158.129 114.055 158.129 114.415C158.129 114.789 158.207 115.122 158.368 115.413C158.524 115.705 158.745 115.933 159.026 116.099C159.307 116.265 159.624 116.347 159.974 116.347ZM159.974 117.081C159.477 117.081 159.031 116.962 158.635 116.725C158.239 116.487 157.926 116.167 157.691 115.764C157.457 115.361 157.342 114.911 157.342 114.415C157.342 113.925 157.457 113.483 157.691 113.087C157.926 112.691 158.239 112.377 158.635 112.142C159.031 111.908 159.477 111.791 159.974 111.791C160.466 111.791 160.908 111.907 161.308 112.137C161.709 112.367 162.026 112.682 162.256 113.081C162.491 113.481 162.61 113.925 162.61 114.415C162.61 114.919 162.491 115.37 162.256 115.769C162.026 116.169 161.709 116.487 161.308 116.725C160.908 116.962 160.466 117.081 159.974 117.081Z" fill="#F3F3F3"/>
<path d="M170.912 116.973H170.144V115.613L170.305 114.361L170.144 113.141V109.33H170.912V116.973ZM168.418 116.358C168.768 116.358 169.081 116.275 169.348 116.109C169.615 115.944 169.817 115.718 169.969 115.43C170.116 115.142 170.19 114.81 170.19 114.436C170.19 114.055 170.112 113.72 169.96 113.432C169.813 113.145 169.601 112.92 169.334 112.758C169.067 112.596 168.759 112.515 168.409 112.515C168.055 112.515 167.742 112.598 167.475 112.763C167.204 112.929 166.987 113.155 166.831 113.443C166.674 113.731 166.592 114.063 166.592 114.436C166.592 114.81 166.67 115.143 166.826 115.435C166.978 115.726 167.194 115.953 167.475 116.115C167.751 116.277 168.064 116.358 168.418 116.358ZM168.289 117.081C167.816 117.081 167.388 116.966 167.015 116.735C166.642 116.505 166.343 116.191 166.131 115.791C165.915 115.391 165.805 114.944 165.805 114.447C165.805 113.944 165.915 113.492 166.131 113.093C166.343 112.693 166.642 112.377 167.019 112.142C167.397 111.908 167.82 111.791 168.289 111.791C168.662 111.791 169.007 111.867 169.32 112.018C169.633 112.169 169.891 112.383 170.093 112.66C170.291 112.938 170.415 113.263 170.457 113.638V115.225C170.415 115.592 170.296 115.914 170.098 116.191C169.9 116.468 169.642 116.685 169.329 116.844C169.016 117.002 168.671 117.081 168.289 117.081Z" fill="#F3F3F3"/>
<path d="M174.762 117.081C174.26 117.081 173.805 116.966 173.404 116.735C172.999 116.505 172.682 116.189 172.447 115.786C172.213 115.383 172.098 114.929 172.098 114.426C172.098 113.929 172.213 113.481 172.438 113.081C172.664 112.682 172.976 112.367 173.372 112.137C173.768 111.907 174.21 111.791 174.697 111.791C175.167 111.791 175.576 111.896 175.935 112.105C176.29 112.313 176.57 112.603 176.777 112.974C176.984 113.345 177.086 113.771 177.086 114.253C177.086 114.311 177.081 114.377 177.072 114.452C177.067 114.528 177.053 114.617 177.03 114.717H172.636V114.069H176.612L176.34 114.307C176.345 113.94 176.285 113.621 176.152 113.352C176.018 113.081 175.825 112.871 175.576 112.72C175.332 112.569 175.033 112.493 174.688 112.493C174.32 112.493 174.003 112.574 173.726 112.736C173.455 112.898 173.239 113.121 173.087 113.405C172.931 113.69 172.852 114.022 172.852 114.404C172.852 114.792 172.935 115.134 173.096 115.43C173.257 115.725 173.483 115.955 173.777 116.12C174.067 116.286 174.403 116.369 174.785 116.369C175.089 116.369 175.369 116.313 175.627 116.201C175.885 116.09 176.106 115.923 176.285 115.699L176.782 116.196C176.543 116.484 176.248 116.703 175.898 116.855C175.544 117.006 175.167 117.081 174.762 117.081Z" fill="#F3F3F3"/>
<path d="M181.264 116.975V116.251H185.635V116.975H181.264ZM181.264 113.52V112.818H185.29V113.52H181.264ZM181.264 110.27V109.547H185.57V110.27H181.264ZM180.734 116.975V109.547H181.53V116.975H180.734Z" fill="#F3F3F3"/>
<path d="M189.197 114.524L188.764 113.973L190.311 111.901H191.217L189.197 114.524ZM190.375 116.975L188.668 114.675L188.516 114.535L186.478 111.901H187.416L188.99 113.973L189.142 114.103L191.304 116.975H190.375ZM186.381 116.975L188.516 114.189L188.949 114.751L187.287 116.975H186.381Z" fill="#F3F3F3"/>
<path d="M194.466 117.081C193.96 117.081 193.509 116.966 193.104 116.735C192.703 116.505 192.381 116.189 192.151 115.786C191.916 115.383 191.797 114.929 191.797 114.426C191.797 113.929 191.912 113.481 192.137 113.081C192.367 112.682 192.676 112.367 193.071 112.137C193.467 111.907 193.909 111.791 194.401 111.791C194.871 111.791 195.28 111.896 195.634 112.105C195.993 112.313 196.274 112.603 196.481 112.974C196.684 113.345 196.785 113.771 196.785 114.253C196.785 114.311 196.785 114.377 196.776 114.452C196.766 114.528 196.753 114.617 196.734 114.717H192.34V114.069H196.311L196.039 114.307C196.049 113.94 195.984 113.621 195.851 113.352C195.717 113.081 195.529 112.871 195.28 112.72C195.032 112.569 194.737 112.493 194.392 112.493C194.024 112.493 193.702 112.574 193.43 112.736C193.154 112.898 192.943 113.121 192.786 113.405C192.63 113.69 192.556 114.022 192.556 114.404C192.556 114.792 192.634 115.134 192.795 115.43C192.961 115.725 193.187 115.955 193.476 116.12C193.771 116.286 194.107 116.369 194.489 116.369C194.788 116.369 195.068 116.313 195.331 116.201C195.588 116.09 195.809 115.923 195.989 115.699L196.486 116.196C196.246 116.484 195.952 116.703 195.598 116.855C195.248 117.006 194.871 117.081 194.466 117.081Z" fill="#F3F3F3"/>
<path d="M198.698 114.017L198.385 113.887C198.385 113.239 198.542 112.728 198.855 112.354C199.168 111.98 199.595 111.792 200.143 111.792C200.396 111.792 200.626 111.838 200.833 111.927C201.04 112.018 201.238 112.16 201.418 112.354L200.911 112.883C200.792 112.754 200.663 112.66 200.516 112.602C200.369 112.545 200.198 112.516 200.014 112.516C199.623 112.516 199.31 112.642 199.062 112.894C198.818 113.146 198.698 113.52 198.698 114.017ZM197.93 116.975V111.901H198.698V116.975H197.93Z" fill="#F3F3F3"/>
<path d="M204.346 117.081C203.849 117.081 203.398 116.965 203.002 116.73C202.602 116.496 202.284 116.178 202.054 115.775C201.824 115.372 201.709 114.922 201.709 114.426C201.709 113.929 201.824 113.481 202.054 113.081C202.284 112.682 202.602 112.367 203.002 112.137C203.398 111.907 203.849 111.791 204.346 111.791C204.732 111.791 205.091 111.863 205.422 112.008C205.754 112.152 206.034 112.353 206.264 112.612L205.758 113.13C205.583 112.936 205.376 112.787 205.137 112.682C204.898 112.578 204.631 112.525 204.346 112.525C203.991 112.525 203.674 112.608 203.393 112.774C203.112 112.939 202.892 113.164 202.735 113.448C202.579 113.733 202.496 114.058 202.496 114.426C202.496 114.792 202.579 115.122 202.735 115.413C202.892 115.705 203.112 115.933 203.393 116.099C203.674 116.265 203.991 116.347 204.346 116.347C204.631 116.347 204.898 116.295 205.142 116.191C205.386 116.086 205.602 115.937 205.781 115.742L206.287 116.25C206.048 116.516 205.763 116.721 205.427 116.865C205.096 117.009 204.732 117.081 204.346 117.081Z" fill="#F3F3F3"/>
<path d="M207.33 116.975V111.901H208.108V116.975H207.33ZM207.04 111.112L206.695 110.767L208.122 109.062L208.734 109.666L207.04 111.112Z" fill="#F3F3F3"/>
<path d="M211.934 117.081C211.437 117.081 210.99 116.965 210.59 116.73C210.19 116.496 209.877 116.178 209.647 115.775C209.412 115.372 209.297 114.922 209.297 114.426C209.297 113.929 209.412 113.481 209.647 113.081C209.877 112.682 210.19 112.367 210.59 112.137C210.99 111.907 211.437 111.791 211.934 111.791C212.32 111.791 212.679 111.863 213.01 112.008C213.342 112.152 213.622 112.353 213.852 112.612L213.346 113.13C213.176 112.936 212.969 112.787 212.725 112.682C212.486 112.578 212.219 112.525 211.934 112.525C211.579 112.525 211.262 112.608 210.981 112.774C210.7 112.939 210.484 113.164 210.323 113.448C210.167 113.733 210.088 114.058 210.088 114.426C210.088 114.792 210.167 115.122 210.323 115.413C210.484 115.705 210.7 115.933 210.981 116.099C211.262 116.265 211.579 116.347 211.934 116.347C212.219 116.347 212.486 116.295 212.73 116.191C212.978 116.086 213.19 115.937 213.369 115.742L213.875 116.25C213.641 116.516 213.351 116.721 213.019 116.865C212.684 117.009 212.32 117.081 211.934 117.081Z" fill="#F3F3F3"/>
<path d="M214.933 116.975V111.901H215.701V116.975H214.933ZM215.31 110.811C215.168 110.811 215.043 110.757 214.947 110.648C214.846 110.54 214.795 110.415 214.795 110.27C214.795 110.119 214.846 109.993 214.947 109.893C215.043 109.792 215.168 109.742 215.31 109.742C215.471 109.742 215.596 109.792 215.697 109.893C215.794 109.993 215.84 110.119 215.84 110.27C215.84 110.415 215.794 110.54 215.697 110.648C215.596 110.757 215.471 110.811 215.31 110.811Z" fill="#F3F3F3"/>
<path d="M219.533 116.347C219.883 116.347 220.2 116.265 220.481 116.099C220.762 115.933 220.983 115.703 221.139 115.408C221.295 115.113 221.378 114.782 221.378 114.415C221.378 114.055 221.295 113.733 221.134 113.448C220.973 113.164 220.752 112.939 220.476 112.774C220.2 112.608 219.883 112.525 219.533 112.525C219.179 112.525 218.861 112.608 218.581 112.774C218.3 112.939 218.079 113.164 217.923 113.448C217.766 113.733 217.683 114.055 217.683 114.415C217.683 114.789 217.766 115.122 217.923 115.413C218.079 115.705 218.3 115.933 218.581 116.099C218.861 116.265 219.179 116.347 219.533 116.347ZM219.533 117.081C219.036 117.081 218.59 116.962 218.194 116.725C217.798 116.487 217.481 116.167 217.246 115.764C217.012 115.361 216.896 114.911 216.896 114.415C216.896 113.925 217.012 113.483 217.246 113.087C217.481 112.691 217.798 112.377 218.194 112.142C218.59 111.908 219.036 111.791 219.533 111.791C220.021 111.791 220.463 111.907 220.863 112.137C221.263 112.367 221.581 112.682 221.815 113.081C222.05 113.481 222.165 113.925 222.165 114.415C222.165 114.919 222.05 115.37 221.815 115.769C221.581 116.169 221.263 116.487 220.863 116.725C220.463 116.962 220.021 117.081 219.533 117.081Z" fill="#F3F3F3"/>
<path d="M224.916 117.081C224.645 117.081 224.383 117.043 224.13 116.968C223.877 116.892 223.651 116.786 223.444 116.649C223.237 116.513 223.058 116.351 222.896 116.164L223.393 115.667C223.596 115.912 223.826 116.093 224.079 116.212C224.337 116.331 224.622 116.39 224.939 116.39C225.271 116.39 225.533 116.325 225.722 116.196C225.91 116.066 226.007 115.887 226.007 115.656C226.007 115.44 225.943 115.273 225.809 115.154C225.676 115.035 225.501 114.939 225.285 114.863C225.068 114.787 224.843 114.715 224.604 114.647C224.369 114.579 224.143 114.492 223.927 114.387C223.715 114.284 223.541 114.139 223.407 113.956C223.269 113.772 223.2 113.526 223.2 113.216C223.2 112.929 223.274 112.678 223.416 112.466C223.559 112.254 223.761 112.088 224.019 111.97C224.281 111.851 224.594 111.791 224.962 111.791C225.34 111.791 225.689 111.86 225.998 111.996C226.306 112.133 226.555 112.335 226.743 112.601L226.246 113.098C226.099 112.903 225.915 112.752 225.69 112.644C225.464 112.536 225.211 112.482 224.93 112.482C224.604 112.482 224.36 112.545 224.189 112.671C224.019 112.797 223.936 112.961 223.936 113.162C223.936 113.357 224.001 113.51 224.139 113.621C224.277 113.733 224.452 113.823 224.663 113.891C224.875 113.96 225.101 114.028 225.34 114.096C225.575 114.165 225.805 114.255 226.021 114.366C226.232 114.478 226.407 114.629 226.541 114.819C226.674 115.01 226.743 115.268 226.743 115.592C226.743 116.045 226.578 116.406 226.251 116.677C225.924 116.946 225.478 117.081 224.916 117.081Z" fill="#F3F3F3"/>
</svg>
